<svg xmlns="http://www.w3.org/2000/svg" xmlns:xlink="http://www.w3.org/1999/xlink" width="1080" zoomAndPan="magnify" viewBox="0 0 810 1439.999935" height="1920" preserveAspectRatio="xMidYMid meet" version="1.0"><defs><filter x="0%" y="0%" width="100%" height="100%" id="23079ab62f"><feColorMatrix values="0 0 0 0 1 0 0 0 0 1 0 0 0 0 1 0 0 0 1 0" color-interpolation-filters="sRGB"/></filter><g/><mask id="15c717c2a4"><g filter="url(#23079ab62f)"><rect x="-81" width="972" fill="#000000" y="-143.999994" height="1727.999922" fill-opacity="0.11"/></g></mask><clipPath id="ca9dc6f6ed"><path d="M 0 0 L 810 0 L 810 1440 L 0 1440 Z M 0 0 " clip-rule="nonzero"/></clipPath><clipPath id="8bb8735653"><rect x="0" width="810" y="0" height="1440"/></clipPath><clipPath id="7f5d7687b1"><path d="M 426.707031 682.5 L 645.136719 682.5 L 645.136719 747.382812 L 426.707031 747.382812 Z M 426.707031 682.5 " clip-rule="nonzero"/></clipPath></defs><rect x="-81" width="972" fill="#ffffff" y="-143.999994" height="1727.999922" fill-opacity="1"/><rect x="-81" width="972" fill="#ff4700" y="-143.999994" height="1727.999922" fill-opacity="1"/><g mask="url(#15c717c2a4)"><g transform="matrix(1, 0, 0, 1, 0, -0.000000000000101068)"><g clip-path="url(#8bb8735653)"><g clip-path="url(#ca9dc6f6ed)"><path fill="#fafafa" d="M 1131.6875 627.984375 C 1131.6875 631.179688 1129.070312 633.796875 1125.875 633.796875 C 1123.257812 633.796875 1121.222656 632.054688 1120.351562 629.726562 L 783.097656 629.726562 L 648.488281 764.335938 L 432.765625 764.335938 L 344.671875 675.664062 L 344.671875 531.167969 L 185.058594 371.554688 L 185.058594 191.300781 L 1.894531 8.136719 L -303.085938 8.136719 C -303.664062 10.464844 -305.992188 12.207031 -308.609375 12.207031 C -311.804688 12.207031 -314.421875 9.589844 -314.421875 6.394531 C -314.421875 3.195312 -311.804688 0.578125 -308.609375 0.578125 C -305.992188 0.578125 -303.957031 2.324219 -303.085938 4.648438 L 3.058594 4.648438 L 187.964844 190.136719 L 187.964844 370.390625 L 347.578125 530.003906 L 347.578125 674.5 L 433.925781 760.847656 L 647.035156 760.847656 L 781.644531 626.238281 L 1120.351562 626.238281 C 1120.929688 623.914062 1123.257812 622.167969 1125.875 622.167969 C 1129.070312 622.167969 1131.6875 624.785156 1131.6875 627.984375 Z M 1125.875 854.464844 C 1123.257812 854.464844 1121.222656 856.207031 1120.351562 858.535156 L 1052.609375 858.535156 L 846.769531 1064.375 L 757.804688 1064.375 L 679.015625 985.585938 L 509.808594 985.585938 L 292.921875 1202.472656 L 172.265625 1202.472656 L 13.523438 1361.214844 L -310.933594 1361.214844 C -311.515625 1358.886719 -313.839844 1357.144531 -316.457031 1357.144531 C -319.65625 1357.144531 -322.273438 1359.761719 -322.273438 1362.957031 C -322.273438 1366.15625 -319.65625 1368.773438 -316.457031 1368.773438 C -313.839844 1368.773438 -311.804688 1367.027344 -310.933594 1364.703125 L 14.6875 1364.703125 L 173.429688 1205.960938 L 294.664062 1205.960938 L 511.554688 989.074219 L 678.144531 989.074219 L 756.933594 1067.863281 L 848.222656 1067.863281 L 1054.0625 862.023438 L 1120.640625 862.023438 C 1121.222656 864.347656 1123.546875 866.09375 1126.164062 866.09375 C 1129.363281 866.09375 1131.980469 863.476562 1131.980469 860.277344 C 1131.6875 857.082031 1129.070312 854.464844 1125.875 854.464844 Z M 1125.875 490.464844 C 1124.710938 490.464844 1123.839844 490.757812 1122.96875 491.335938 L 1005.511719 373.300781 L 785.714844 373.300781 L 657.792969 501.222656 L 482.480469 501.222656 L 350.195312 368.9375 L 350.195312 163.679688 C 352.519531 163.097656 354.265625 160.773438 354.265625 158.15625 C 354.265625 154.957031 351.648438 152.339844 348.449219 152.339844 C 345.253906 152.339844 342.636719 154.957031 342.636719 158.15625 C 342.636719 160.773438 344.378906 162.808594 346.707031 163.679688 L 346.707031 370.101562 L 480.734375 504.128906 L 658.375 504.128906 L 786.296875 376.207031 L 1003.476562 376.207031 L 1120.351562 493.082031 C 1119.769531 493.953125 1119.476562 494.828125 1119.476562 495.988281 C 1119.476562 499.1875 1122.09375 501.804688 1125.292969 501.804688 C 1128.492188 501.804688 1131.109375 499.1875 1131.109375 495.988281 C 1131.6875 493.082031 1129.070312 490.464844 1125.875 490.464844 Z M 1024.117188 196.242188 L 903.753906 316.605469 L 704.308594 316.605469 L 465.617188 77.914062 L 215.875 77.914062 C 215.292969 75.585938 212.96875 73.84375 210.351562 73.84375 C 207.152344 73.84375 204.539062 76.460938 204.539062 79.65625 C 204.539062 82.855469 207.152344 85.472656 210.351562 85.472656 C 212.96875 85.472656 215.003906 83.726562 215.875 81.402344 L 464.453125 81.402344 L 703.148438 320.09375 L 904.917969 320.09375 L 1025.28125 199.730469 L 1120.351562 199.730469 C 1120.933594 202.058594 1123.257812 203.800781 1125.875 203.800781 C 1129.070312 203.800781 1131.6875 201.183594 1131.6875 197.988281 C 1131.6875 194.789062 1129.070312 192.171875 1125.875 192.171875 C 1123.257812 192.171875 1121.222656 193.917969 1120.351562 196.242188 Z M 411.539062 250.609375 C 413.285156 252.355469 416.191406 252.644531 418.226562 251.480469 L 551.964844 385.21875 L 649.070312 385.21875 C 649.652344 387.546875 651.976562 389.289062 654.59375 389.289062 C 657.792969 389.289062 660.410156 386.671875 660.410156 383.476562 C 660.410156 380.277344 657.792969 377.660156 654.59375 377.660156 C 651.976562 377.660156 649.941406 379.40625 649.070312 381.730469 L 553.128906 381.730469 L 420.261719 248.867188 C 421.425781 246.832031 421.132812 243.921875 419.390625 242.179688 C 417.0625 239.851562 413.574219 239.851562 411.25 242.179688 C 409.214844 244.796875 409.214844 248.285156 411.539062 250.609375 Z M 894.160156 245.957031 L 816.824219 245.957031 L 685.703125 114.835938 L 587.433594 114.835938 C 586.851562 112.511719 584.527344 110.765625 581.910156 110.765625 C 578.710938 110.765625 576.097656 113.382812 576.097656 116.582031 C 576.097656 119.777344 578.710938 122.394531 581.910156 122.394531 C 584.527344 122.394531 586.5625 120.652344 587.433594 118.324219 L 684.25 118.324219 L 815.371094 249.445312 L 895.320312 249.445312 L 1002.601562 142.164062 L 1002.601562 65.410156 C 1004.929688 64.832031 1006.671875 62.503906 1006.671875 59.886719 C 1006.671875 56.691406 1004.054688 54.074219 1000.859375 54.074219 C 997.660156 54.074219 995.042969 56.691406 995.042969 59.886719 C 995.042969 62.503906 996.789062 64.539062 999.113281 65.410156 L 999.113281 140.421875 Z M 98.710938 28.488281 C 101.328125 28.488281 103.363281 26.746094 104.234375 24.417969 L 638.023438 24.417969 L 683.957031 70.355469 L 870.609375 70.355469 L 920.324219 20.640625 L 1021.792969 20.640625 L 1073.832031 72.679688 L 1073.832031 134.605469 C 1071.507812 135.1875 1069.761719 137.515625 1069.761719 140.128906 C 1069.761719 143.328125 1072.378906 145.945312 1075.578125 145.945312 C 1078.773438 145.945312 1081.390625 143.328125 1081.390625 140.128906 C 1081.390625 137.515625 1079.648438 135.480469 1077.320312 134.605469 L 1077.320312 71.226562 L 1023.246094 17.730469 L 919.453125 17.730469 L 869.738281 67.445312 L 685.410156 67.445312 L 639.183594 21.21875 L 104.234375 21.21875 C 103.652344 18.894531 101.328125 17.148438 98.710938 17.148438 C 95.511719 17.148438 92.894531 19.765625 92.894531 22.964844 C 92.894531 25.871094 95.511719 28.488281 98.710938 28.488281 Z M -303.085938 104.953125 C -303.664062 102.625 -305.992188 100.882812 -308.609375 100.882812 C -311.804688 100.882812 -314.421875 103.5 -314.421875 106.695312 C -314.421875 109.894531 -311.804688 112.511719 -308.609375 112.511719 C -305.992188 112.511719 -303.957031 110.765625 -303.085938 108.441406 L -103.058594 108.441406 L 10.328125 221.828125 L 10.328125 482.617188 L 141.738281 614.027344 L 276.929688 614.027344 C 277.511719 616.351562 279.835938 618.097656 282.453125 618.097656 C 285.652344 618.097656 288.269531 615.480469 288.269531 612.28125 C 288.269531 609.085938 285.652344 606.46875 282.453125 606.46875 C 279.835938 606.46875 277.800781 608.210938 276.929688 610.539062 L 143.191406 610.539062 L 13.523438 480.871094 L 13.523438 220.375 L -101.894531 104.953125 Z M -19.617188 94.777344 C -21.945312 92.449219 -25.433594 92.449219 -27.757812 94.777344 C -30.085938 97.101562 -30.085938 100.589844 -27.757812 102.917969 C -26.015625 104.660156 -23.105469 104.953125 -21.070312 103.789062 L 85.917969 210.777344 L 85.917969 423.304688 L 170.523438 507.910156 C 169.359375 509.945312 169.648438 512.851562 171.394531 514.597656 C 173.71875 516.921875 177.207031 516.921875 179.535156 514.597656 C 181.859375 512.269531 181.859375 508.78125 179.535156 506.457031 C 177.789062 504.710938 174.882812 504.421875 172.847656 505.582031 L 89.117188 421.851562 L 89.117188 209.617188 L -18.746094 101.753906 C -17.582031 99.429688 -17.875 96.8125 -19.617188 94.777344 Z M -316.167969 1139.964844 C -313.550781 1139.964844 -311.515625 1138.222656 -310.644531 1135.894531 L -124.863281 1135.894531 L -16.710938 1027.453125 L 130.109375 1027.453125 L 216.75 1114.089844 L 282.746094 1114.089844 L 510.390625 886.445312 L 815.078125 886.445312 C 815.660156 888.769531 817.988281 890.515625 820.601562 890.515625 C 823.800781 890.515625 826.417969 887.898438 826.417969 884.699219 C 826.417969 881.503906 823.800781 878.886719 820.601562 878.886719 C 817.988281 878.886719 815.953125 880.628906 815.078125 882.957031 L 509.519531 882.957031 L 281.871094 1110.601562 L 218.203125 1110.601562 L 131.5625 1023.960938 L -17.875 1023.960938 L -126.316406 1132.40625 L -310.933594 1132.40625 C -311.515625 1130.082031 -313.839844 1128.335938 -316.457031 1128.335938 C -319.65625 1128.335938 -322.273438 1130.953125 -322.273438 1134.152344 C -321.980469 1137.347656 -319.367188 1139.964844 -316.167969 1139.964844 Z M 1125.875 715.203125 C 1123.257812 715.203125 1121.222656 716.949219 1120.351562 719.273438 L 1000.277344 719.273438 L 900.265625 819.285156 L 673.199219 819.285156 C 672.621094 816.960938 670.292969 815.214844 667.675781 815.214844 C 664.480469 815.214844 661.863281 817.832031 661.863281 821.03125 C 661.863281 824.226562 664.480469 826.84375 667.675781 826.84375 C 670.292969 826.84375 672.328125 825.101562 673.199219 822.773438 L 902.007812 822.773438 L 1001.730469 722.761719 L 1120.640625 722.761719 C 1121.222656 725.085938 1123.546875 726.832031 1126.164062 726.832031 C 1129.363281 726.832031 1131.980469 724.214844 1131.980469 721.015625 C 1131.6875 717.820312 1129.070312 715.203125 1125.875 715.203125 Z M 760.128906 934.996094 C 759.550781 932.671875 757.222656 930.925781 754.605469 930.925781 C 751.410156 930.925781 748.792969 933.542969 748.792969 936.742188 C 748.792969 939.941406 751.410156 942.558594 754.605469 942.558594 C 757.222656 942.558594 759.257812 940.8125 760.128906 938.488281 L 858.398438 938.488281 L 1014.523438 782.363281 C 1016.558594 783.527344 1019.464844 783.234375 1021.210938 781.492188 C 1023.535156 779.164062 1023.535156 775.675781 1021.210938 773.351562 C 1018.882812 771.023438 1015.394531 771.023438 1013.070312 773.351562 C 1011.324219 775.09375 1011.035156 778 1012.195312 780.035156 L 857.234375 934.996094 Z M -316.167969 757.648438 C -313.550781 757.648438 -311.515625 755.90625 -310.644531 753.578125 L -273.136719 753.578125 L -180.683594 846.035156 L -48.109375 846.035156 L 60.332031 954.476562 L 348.160156 954.476562 L 412.703125 889.933594 C 413.574219 890.515625 414.449219 890.804688 415.609375 890.804688 C 418.808594 890.804688 421.425781 888.191406 421.425781 884.992188 C 421.425781 881.792969 418.808594 879.175781 415.609375 879.175781 C 412.414062 879.175781 409.796875 881.792969 409.796875 884.992188 C 409.796875 886.15625 410.085938 887.027344 410.667969 887.898438 L 346.707031 951.570312 L 61.496094 951.570312 L -46.949219 843.125 L -179.523438 843.125 L -272.265625 750.671875 L -310.933594 750.671875 C -311.515625 748.347656 -313.839844 746.601562 -316.457031 746.601562 C -319.65625 746.601562 -322.273438 749.21875 -322.273438 752.417969 C -321.980469 755.035156 -319.367188 757.648438 -316.167969 757.648438 Z M -316.167969 1057.6875 C -313.550781 1057.6875 -311.515625 1055.941406 -310.644531 1053.617188 L -181.265625 1053.617188 L -87.070312 959.417969 L -45.785156 959.417969 C -45.203125 961.746094 -42.878906 963.488281 -40.261719 963.488281 C -37.0625 963.488281 -34.445312 960.875 -34.445312 957.675781 C -34.445312 954.476562 -37.0625 951.859375 -40.261719 951.859375 C -42.878906 951.859375 -44.914062 953.605469 -45.785156 955.929688 L -88.523438 955.929688 L -182.71875 1050.128906 L -310.644531 1050.128906 C -311.226562 1047.800781 -313.550781 1046.058594 -316.167969 1046.058594 C -319.367188 1046.058594 -321.980469 1048.675781 -321.980469 1051.871094 C -321.980469 1055.070312 -319.367188 1057.6875 -316.167969 1057.6875 Z M -316.167969 1261.78125 C -313.550781 1261.78125 -311.515625 1260.039062 -310.644531 1257.710938 L -163.824219 1257.710938 L -117.886719 1303.648438 L -14.964844 1303.648438 L 128.65625 1160.027344 L 252.507812 1160.027344 C 253.089844 1162.351562 255.417969 1164.097656 258.03125 1164.097656 C 261.230469 1164.097656 263.847656 1161.480469 263.847656 1158.28125 C 263.847656 1155.082031 261.230469 1152.46875 258.03125 1152.46875 C 255.417969 1152.46875 253.382812 1154.210938 252.507812 1156.539062 L 127.492188 1156.539062 L -16.421875 1300.742188 L -116.433594 1300.742188 L -162.660156 1254.515625 L -310.933594 1254.515625 C -311.515625 1252.1875 -313.839844 1250.445312 -316.457031 1250.445312 C -319.65625 1250.445312 -322.273438 1253.0625 -322.273438 1256.257812 C -321.980469 1259.167969 -319.367188 1261.78125 -316.167969 1261.78125 Z M 121.386719 1099.554688 L 37.367188 1099.554688 L -55.378906 1192.296875 L -260.347656 1192.296875 C -260.929688 1189.972656 -263.253906 1188.226562 -265.871094 1188.226562 C -269.066406 1188.226562 -271.683594 1190.84375 -271.683594 1194.042969 C -271.683594 1197.238281 -269.066406 1199.855469 -265.871094 1199.855469 C -263.253906 1199.855469 -261.21875 1198.113281 -260.347656 1195.785156 L -53.925781 1195.785156 L 38.527344 1103.042969 L 121.386719 1103.042969 C 121.96875 1105.367188 124.296875 1107.113281 126.910156 1107.113281 C 130.109375 1107.113281 132.726562 1104.496094 132.726562 1101.296875 C 132.726562 1098.101562 130.109375 1095.484375 126.910156 1095.484375 C 124.296875 1095.484375 121.96875 1097.226562 121.386719 1099.554688 Z M 258.324219 903.308594 L 346.707031 814.925781 L 529.578125 814.925781 C 530.160156 817.25 532.484375 818.996094 535.101562 818.996094 C 538.300781 818.996094 540.917969 816.378906 540.917969 813.179688 C 540.917969 809.980469 538.300781 807.367188 535.101562 807.367188 C 532.484375 807.367188 530.160156 809.109375 529.578125 811.4375 L 345.542969 811.4375 L 257.160156 899.820312 L 110.628906 899.820312 L -127.773438 661.417969 L -127.773438 485.523438 L -264.417969 348.878906 L -264.417969 163.679688 C -262.089844 163.097656 -260.347656 160.773438 -260.347656 158.15625 C -260.347656 154.957031 -262.964844 152.339844 -266.160156 152.339844 C -269.359375 152.339844 -271.976562 154.957031 -271.976562 158.15625 C -271.976562 160.773438 -270.230469 162.808594 -267.90625 163.679688 L -267.90625 350.332031 L -131.261719 486.976562 L -131.261719 662.871094 L 108.886719 903.015625 L 258.324219 903.015625 Z M -210.339844 229.96875 C -210.339844 233.164062 -207.722656 235.78125 -204.523438 235.78125 C -201.910156 235.78125 -199.875 234.039062 -199 231.710938 L -147.832031 231.710938 L -82.417969 297.128906 L -82.417969 602.6875 L 33.585938 718.691406 L 252.507812 718.691406 C 253.089844 721.015625 255.417969 722.761719 258.03125 722.761719 C 261.230469 722.761719 263.847656 720.144531 263.847656 716.945312 C 263.847656 713.75 261.230469 711.132812 258.03125 711.132812 C 255.417969 711.132812 253.382812 712.875 252.507812 715.203125 L 34.75 715.203125 L -79.507812 600.945312 L -79.507812 295.671875 L -146.667969 228.515625 L -199 228.515625 C -199.582031 226.1875 -201.910156 224.445312 -204.523438 224.445312 C -207.722656 224.152344 -210.339844 226.769531 -210.339844 229.96875 Z M -61.773438 230.550781 C -59.449219 232.875 -55.960938 232.875 -53.632812 230.550781 C -51.308594 228.222656 -51.308594 224.734375 -53.632812 222.410156 C -55.378906 220.664062 -58.285156 220.375 -60.320312 221.535156 L -118.46875 163.390625 L -191.734375 163.390625 C -192.316406 161.0625 -194.640625 159.320312 -197.257812 159.320312 C -200.453125 159.320312 -203.070312 161.9375 -203.070312 165.132812 C -203.070312 168.332031 -200.453125 170.949219 -197.257812 170.949219 C -194.640625 170.949219 -192.605469 169.203125 -191.734375 166.878906 L -119.921875 166.878906 L -62.648438 224.152344 C -63.808594 225.898438 -63.519531 228.804688 -61.773438 230.550781 Z M -113.816406 411.96875 C -111.492188 414.292969 -108 414.292969 -105.675781 411.96875 C -103.351562 409.640625 -103.351562 406.152344 -105.675781 403.828125 C -107.421875 402.082031 -110.328125 401.792969 -112.363281 402.953125 L -156.554688 358.761719 L -156.554688 299.742188 C -154.226562 299.164062 -152.484375 296.835938 -152.484375 294.21875 C -152.484375 291.023438 -155.101562 288.695312 -158.296875 288.695312 C -161.496094 288.695312 -163.824219 291.3125 -163.824219 294.511719 C -163.824219 297.128906 -162.078125 299.164062 -159.753906 300.035156 L -159.753906 360.214844 L -114.6875 405.28125 C -115.851562 407.316406 -115.5625 410.222656 -113.816406 411.96875 Z M 362.40625 753.578125 L 268.789062 659.964844 L 99.292969 659.964844 L -35.316406 525.351562 C -34.738281 524.480469 -34.445312 523.609375 -34.445312 522.445312 C -34.445312 519.246094 -37.0625 516.632812 -40.261719 516.632812 C -43.457031 516.632812 -46.074219 519.246094 -46.074219 522.445312 C -46.074219 525.644531 -43.457031 528.261719 -40.261719 528.261719 C -39.386719 528.261719 -38.226562 527.96875 -37.351562 527.386719 L 98.128906 662.871094 L 267.625 662.871094 L 360.371094 755.613281 C 359.207031 757.648438 359.5 760.558594 361.242188 762.300781 C 363.570312 764.628906 367.058594 764.628906 369.382812 762.300781 C 371.710938 759.976562 371.710938 756.488281 369.382812 754.160156 C 367.347656 752.707031 364.730469 752.417969 362.40625 753.578125 Z M 310.65625 777.710938 C 313.855469 777.710938 316.46875 775.09375 316.46875 771.894531 C 316.46875 768.699219 313.855469 766.082031 310.65625 766.082031 C 308.039062 766.082031 306.003906 767.824219 305.132812 770.152344 L 207.152344 770.152344 L 175.171875 802.132812 L 94.347656 802.132812 L 45.214844 753 C 46.378906 750.964844 46.085938 748.054688 44.34375 746.3125 C 42.015625 743.984375 38.527344 743.984375 36.203125 746.3125 C 33.875 748.636719 33.875 752.125 36.203125 754.453125 C 37.945312 756.195312 40.855469 756.488281 42.890625 755.324219 L 92.894531 805.332031 L 176.335938 805.332031 L 208.316406 773.351562 L 305.132812 773.351562 C 306.003906 775.964844 308.039062 777.710938 310.65625 777.710938 Z M 139.996094 845.160156 C 139.414062 842.835938 137.085938 841.089844 134.46875 841.089844 C 131.273438 841.089844 128.65625 843.707031 128.65625 846.90625 C 128.65625 850.101562 131.273438 852.71875 134.46875 852.71875 C 137.085938 852.71875 139.121094 850.976562 139.996094 848.648438 L 221.980469 848.648438 L 254.835938 815.796875 C 256.871094 816.960938 259.777344 816.667969 261.523438 814.925781 C 263.847656 812.597656 263.847656 809.109375 261.523438 806.785156 C 259.195312 804.457031 255.707031 804.457031 253.382812 806.785156 C 251.636719 808.527344 251.347656 811.4375 252.507812 813.472656 L 220.527344 845.453125 L 139.996094 845.453125 Z M -79.21875 794.574219 C -79.21875 794.863281 -79.21875 794.863281 -79.21875 794.574219 C -76.894531 796.898438 -73.402344 796.898438 -71.078125 794.574219 C -68.753906 792.246094 -68.753906 788.757812 -71.078125 786.433594 C -72.824219 784.6875 -75.730469 784.398438 -77.765625 785.5625 L -168.183594 695.140625 L -168.183594 492.5 L -260.929688 400.046875 C -259.765625 398.011719 -260.054688 395.105469 -261.800781 393.359375 C -264.125 391.035156 -267.613281 391.035156 -269.941406 393.359375 C -272.265625 395.6875 -272.265625 399.175781 -269.941406 401.5 C -268.195312 403.246094 -265.289062 403.535156 -263.253906 402.371094 L -171.671875 493.953125 L -171.671875 696.886719 L -80.382812 788.175781 C -81.253906 790.210938 -80.964844 792.828125 -79.21875 794.574219 Z M -162.078125 788.46875 C -159.753906 790.792969 -156.261719 790.792969 -153.9375 788.46875 C -151.613281 786.140625 -151.613281 782.652344 -153.9375 780.328125 C -155.683594 778.582031 -158.589844 778.292969 -160.625 779.457031 L -217.609375 722.472656 L -217.609375 542.507812 L -299.015625 461.683594 L -299.015625 310.210938 C -296.6875 309.628906 -294.945312 307.304688 -294.945312 304.6875 C -294.945312 301.488281 -297.558594 298.871094 -300.757812 298.871094 C -303.957031 298.871094 -306.574219 301.488281 -306.574219 304.6875 C -306.574219 307.304688 -304.828125 309.339844 -302.503906 310.210938 L -302.503906 462.84375 L -221.386719 543.960938 L -221.386719 723.925781 L -163.53125 781.78125 C -164.402344 783.816406 -164.113281 786.433594 -162.078125 788.46875 Z M -263.835938 577.976562 C -263.835938 574.777344 -266.453125 572.160156 -269.648438 572.160156 C -272.847656 572.160156 -275.464844 574.777344 -275.464844 577.976562 C -275.464844 580.59375 -273.71875 582.628906 -271.394531 583.5 L -271.394531 702.992188 C -273.71875 703.574219 -275.464844 705.898438 -275.464844 708.515625 C -275.464844 711.714844 -272.847656 714.332031 -269.648438 714.332031 C -266.453125 714.332031 -263.835938 711.714844 -263.835938 708.515625 C -263.835938 705.898438 -265.578125 703.863281 -267.90625 702.992188 L -267.90625 583.5 C -265.871094 582.917969 -263.835938 580.59375 -263.835938 577.976562 Z M -316.167969 834.113281 C -313.550781 834.113281 -311.515625 832.367188 -310.644531 830.042969 L -266.160156 830.042969 L -180.683594 915.519531 L -74.859375 915.519531 C -74.277344 917.84375 -71.949219 919.589844 -69.332031 919.589844 C -66.136719 919.589844 -63.519531 916.972656 -63.519531 913.773438 C -63.519531 910.574219 -66.136719 907.960938 -69.332031 907.960938 C -71.949219 907.960938 -73.984375 909.703125 -74.859375 912.03125 L -179.8125 912.03125 L -264.996094 826.84375 L -310.933594 826.84375 C -311.515625 824.519531 -313.839844 822.773438 -316.457031 822.773438 C -319.65625 822.773438 -322.273438 825.390625 -322.273438 828.589844 C -321.980469 831.496094 -319.367188 834.113281 -316.167969 834.113281 Z M -248.136719 998.667969 L -191.152344 998.667969 L -151.613281 959.128906 C -149.578125 960.292969 -146.667969 960.292969 -144.632812 958.257812 C -142.308594 955.929688 -142.308594 952.441406 -144.632812 950.117188 C -146.960938 947.789062 -150.449219 947.789062 -152.773438 950.117188 C -154.519531 951.859375 -154.808594 954.476562 -153.648438 956.804688 L -192.605469 995.46875 L -246.972656 995.46875 L -286.511719 955.929688 L -286.511719 865.511719 C -284.1875 864.929688 -282.441406 862.605469 -282.441406 859.988281 C -282.441406 856.789062 -285.058594 854.171875 -288.257812 854.171875 C -291.453125 854.171875 -294.070312 856.789062 -294.070312 859.988281 C -294.070312 862.605469 -292.328125 864.640625 -290 865.511719 L -290 957.09375 Z M 213.839844 992.855469 C 211.515625 990.527344 208.027344 990.527344 205.699219 992.855469 C 203.375 995.179688 203.375 998.667969 205.699219 1000.996094 C 207.445312 1002.738281 210.351562 1003.03125 212.386719 1001.867188 L 251.347656 1040.824219 L 297.574219 1040.824219 C 298.152344 1043.152344 300.480469 1044.894531 303.097656 1044.894531 C 306.292969 1044.894531 308.910156 1042.277344 308.910156 1039.371094 C 308.910156 1036.171875 306.292969 1033.558594 303.386719 1033.558594 C 300.769531 1033.558594 298.445312 1035.300781 297.863281 1037.625 L 253.089844 1037.625 L 215.003906 999.539062 C 215.875 997.503906 215.585938 994.890625 213.839844 992.855469 Z M 246.695312 304.6875 C 246.695312 307.882812 249.3125 310.5 252.507812 310.5 C 255.707031 310.5 258.324219 307.882812 258.324219 304.6875 C 258.324219 302.070312 256.578125 300.035156 254.253906 299.164062 L 254.253906 177.925781 L 227.214844 150.886719 C 228.378906 148.851562 228.085938 145.945312 226.34375 144.199219 C 224.015625 141.875 220.527344 141.875 218.203125 144.199219 C 215.875 146.527344 215.875 150.015625 218.203125 152.339844 C 219.945312 154.085938 222.855469 154.375 224.890625 153.214844 L 251.054688 179.378906 L 251.054688 299.453125 C 248.4375 300.035156 246.695312 302.070312 246.695312 304.6875 Z M 369.382812 469.53125 C 367.058594 467.207031 363.570312 467.207031 361.242188 469.53125 C 358.917969 471.859375 358.917969 475.347656 361.242188 477.671875 C 362.988281 479.417969 365.894531 479.707031 367.929688 478.546875 L 434.21875 544.832031 L 434.21875 605.015625 L 507.191406 677.988281 L 597.902344 677.988281 L 836.59375 439.296875 L 923.234375 439.296875 L 1027.898438 543.960938 L 1086.335938 543.960938 C 1086.914062 546.285156 1089.242188 548.03125 1091.859375 548.03125 C 1095.054688 548.03125 1097.671875 545.414062 1097.671875 542.214844 C 1097.671875 539.019531 1095.054688 536.402344 1091.859375 536.402344 C 1089.242188 536.402344 1087.207031 538.144531 1086.335938 540.472656 L 1029.058594 540.472656 L 924.394531 435.808594 L 835.140625 435.808594 L 596.738281 674.789062 L 508.644531 674.789062 L 437.707031 603.5625 L 437.707031 543.378906 L 370.546875 476.21875 C 371.417969 474.183594 371.128906 471.277344 369.382812 469.53125 Z M 507.484375 552.101562 C 505.15625 549.773438 501.667969 549.773438 499.34375 552.101562 C 497.015625 554.425781 497.015625 557.914062 499.34375 560.242188 C 501.085938 561.984375 503.992188 562.277344 506.027344 561.113281 L 556.90625 611.992188 L 597.027344 611.992188 L 730.765625 478.253906 C 732.800781 479.417969 735.707031 479.125 737.453125 477.382812 C 739.777344 475.054688 739.777344 471.566406 737.453125 469.242188 C 735.128906 466.914062 731.636719 466.914062 729.3125 469.242188 C 727.566406 470.984375 727.277344 473.894531 728.441406 475.929688 L 595.574219 608.792969 L 558.070312 608.792969 L 508.0625 558.789062 C 509.519531 556.753906 509.226562 553.84375 507.484375 552.101562 Z M 1125.875 585.535156 C 1123.257812 585.535156 1121.222656 587.28125 1120.351562 589.605469 L 995.625 589.605469 L 904.917969 498.605469 L 836.59375 498.605469 L 692.390625 642.808594 C 690.355469 641.648438 687.445312 641.9375 685.410156 643.683594 C 683.085938 646.007812 683.085938 649.496094 685.410156 651.824219 C 687.738281 654.148438 691.226562 654.148438 693.550781 651.824219 C 695.296875 650.078125 695.585938 647.171875 694.425781 645.136719 L 837.757812 501.804688 L 903.460938 501.804688 L 994.460938 592.804688 L 1120.351562 592.804688 C 1120.929688 595.128906 1123.257812 596.875 1125.875 596.875 C 1129.070312 596.875 1131.6875 594.257812 1131.6875 591.058594 C 1131.6875 587.859375 1129.070312 585.535156 1125.875 585.535156 Z M 1080.230469 249.15625 C 1080.808594 251.480469 1083.136719 253.226562 1085.753906 253.226562 C 1088.949219 253.226562 1091.566406 250.609375 1091.566406 247.410156 C 1091.566406 244.214844 1088.949219 241.597656 1085.753906 241.597656 C 1083.136719 241.597656 1081.101562 243.339844 1080.230469 245.667969 L 1044.757812 245.667969 L 1003.765625 286.660156 C 1001.730469 285.496094 998.824219 285.789062 997.078125 287.53125 C 994.753906 289.859375 994.753906 293.347656 997.078125 295.671875 C 999.40625 298 1002.894531 298 1005.21875 295.671875 C 1006.964844 293.929688 1007.253906 291.023438 1006.089844 288.988281 L 1046.210938 248.867188 L 1080.230469 248.867188 Z M 1098.546875 388.707031 C 1100.871094 391.035156 1104.359375 391.035156 1106.6875 388.707031 C 1109.011719 386.382812 1109.011719 382.894531 1106.6875 380.566406 C 1104.941406 378.824219 1102.035156 378.53125 1100 379.695312 L 1044.179688 323.875 L 974.691406 323.875 C 974.109375 321.546875 971.785156 319.804688 969.167969 319.804688 C 965.96875 319.804688 963.355469 322.421875 963.355469 325.617188 C 963.355469 328.816406 965.96875 331.433594 969.167969 331.433594 C 971.785156 331.433594 973.820312 329.6875 974.691406 327.363281 L 1042.722656 327.363281 L 1097.671875 382.3125 C 1096.511719 384.058594 1096.800781 386.964844 1098.546875 388.707031 Z M 605.75 308.757812 C 608.078125 311.082031 611.566406 311.082031 613.890625 308.757812 C 616.21875 306.429688 616.21875 302.941406 613.890625 300.617188 C 612.148438 298.871094 609.238281 298.582031 607.203125 299.742188 L 476.082031 168.621094 L 403.109375 168.621094 C 402.527344 166.296875 400.203125 164.550781 397.585938 164.550781 C 394.386719 164.550781 391.769531 167.167969 391.769531 170.078125 C 391.769531 173.273438 394.386719 175.890625 397.292969 175.890625 C 397.292969 175.890625 397.292969 175.890625 397.585938 175.890625 C 400.203125 175.890625 402.238281 174.148438 402.816406 171.820312 L 474.628906 171.820312 L 604.878906 302.070312 C 603.425781 304.105469 603.714844 307.011719 605.75 308.757812 Z M 1125.875 1214.683594 C 1123.257812 1214.683594 1121.222656 1216.429688 1120.351562 1218.753906 L 1045.339844 1218.753906 L 950.269531 1313.824219 L 751.117188 1313.824219 L 667.386719 1397.554688 L 422.296875 1397.554688 L 345.253906 1320.511719 L 130.402344 1320.511719 L 39.691406 1411.21875 L -310.933594 1411.21875 C -311.515625 1408.894531 -313.839844 1407.148438 -316.457031 1407.148438 C -319.65625 1407.148438 -322.273438 1409.765625 -322.273438 1412.964844 C -322.273438 1416.164062 -319.65625 1418.78125 -316.457031 1418.78125 C -313.839844 1418.78125 -311.804688 1417.035156 -310.933594 1414.710938 L 40.855469 1414.710938 L 131.5625 1324 L 344.089844 1324 L 421.132812 1401.042969 L 669.128906 1401.042969 L 752.863281 1317.3125 L 952.015625 1317.3125 L 1047.085938 1222.242188 L 1120.933594 1222.242188 C 1121.511719 1224.570312 1123.839844 1226.3125 1126.457031 1226.3125 C 1129.652344 1226.3125 1132.269531 1223.695312 1132.269531 1220.5 C 1131.6875 1217.300781 1129.070312 1214.683594 1125.875 1214.683594 Z M 1125.875 1157.699219 C 1123.257812 1157.699219 1121.222656 1159.445312 1120.351562 1161.769531 L 842.699219 1161.769531 L 662.734375 1341.734375 L 486.550781 1341.734375 L 415.902344 1271.085938 L 182.734375 1271.085938 C 182.152344 1268.761719 179.824219 1267.015625 177.207031 1267.015625 C 174.011719 1267.015625 171.394531 1269.632812 171.394531 1272.832031 C 171.394531 1276.027344 174.011719 1278.644531 177.207031 1278.644531 C 179.824219 1278.644531 181.859375 1276.902344 182.734375 1274.574219 L 414.738281 1274.574219 L 485.386719 1345.222656 L 664.1875 1345.222656 L 844.152344 1165.257812 L 1120.640625 1165.257812 C 1121.222656 1167.585938 1123.546875 1169.328125 1126.164062 1169.328125 C 1129.363281 1169.328125 1131.980469 1166.714844 1131.980469 1163.515625 C 1131.6875 1160.316406 1129.070312 1157.699219 1125.875 1157.699219 Z M 1125.875 1057.105469 C 1123.257812 1057.105469 1121.222656 1058.851562 1120.351562 1061.175781 L 920.90625 1061.175781 L 872.644531 1109.4375 L 734.253906 1109.4375 L 661.863281 1037.046875 L 544.988281 1037.046875 L 356.882812 1225.152344 C 354.847656 1223.988281 351.941406 1224.277344 350.195312 1226.023438 C 347.871094 1228.347656 347.871094 1231.835938 350.195312 1234.164062 C 352.519531 1236.488281 356.011719 1236.488281 358.335938 1234.164062 C 360.082031 1232.417969 360.371094 1229.511719 359.207031 1227.476562 L 546.441406 1040.242188 L 660.699219 1040.242188 L 733.09375 1112.636719 L 873.808594 1112.636719 L 922.070312 1064.375 L 1120.351562 1064.375 C 1120.929688 1066.699219 1123.257812 1068.445312 1125.875 1068.445312 C 1129.070312 1068.445312 1131.6875 1065.828125 1131.6875 1062.628906 C 1131.6875 1059.722656 1129.070312 1057.105469 1125.875 1057.105469 Z M 445.847656 1216.429688 C 443.519531 1214.101562 440.03125 1214.101562 437.707031 1216.429688 C 435.378906 1218.753906 435.378906 1222.242188 437.707031 1224.570312 C 439.449219 1226.3125 442.359375 1226.605469 444.394531 1225.441406 L 502.25 1283.296875 L 551.09375 1283.296875 L 684.25 1150.140625 L 749.082031 1150.140625 C 749.664062 1152.46875 751.988281 1154.210938 754.605469 1154.210938 C 757.804688 1154.210938 760.421875 1151.59375 760.421875 1148.398438 C 760.421875 1145.199219 757.804688 1142.582031 754.605469 1142.582031 C 751.988281 1142.582031 749.953125 1144.328125 749.082031 1146.652344 L 682.796875 1146.652344 L 549.640625 1279.808594 L 503.121094 1279.808594 L 446.136719 1222.824219 C 447.882812 1221.082031 447.589844 1218.171875 445.847656 1216.429688 Z M 663.023438 1102.171875 C 663.605469 1104.496094 665.933594 1106.242188 668.550781 1106.242188 C 671.746094 1106.242188 674.363281 1103.625 674.363281 1100.425781 C 674.363281 1097.226562 671.746094 1094.609375 668.550781 1094.609375 C 665.933594 1094.609375 663.898438 1096.355469 663.023438 1098.679688 L 575.804688 1098.679688 L 478.117188 1196.367188 C 476.082031 1195.203125 473.175781 1195.496094 471.429688 1197.238281 C 469.105469 1199.566406 469.105469 1203.054688 471.429688 1205.378906 C 473.757812 1207.707031 477.246094 1207.707031 479.570312 1205.378906 C 481.316406 1203.636719 481.605469 1200.730469 480.445312 1198.695312 L 577.257812 1101.878906 L 663.023438 1101.878906 Z M 1125.875 1105.949219 C 1123.257812 1105.949219 1121.222656 1107.695312 1120.351562 1110.019531 L 948.527344 1110.019531 C 947.945312 1107.695312 945.617188 1105.949219 943.003906 1105.949219 C 939.804688 1105.949219 937.1875 1108.566406 937.1875 1111.765625 C 937.1875 1114.960938 939.804688 1117.578125 943.003906 1117.578125 C 945.617188 1117.578125 947.652344 1115.835938 948.527344 1113.507812 L 1120.351562 1113.507812 C 1120.933594 1115.835938 1123.257812 1117.578125 1125.875 1117.578125 C 1129.070312 1117.578125 1131.6875 1114.960938 1131.6875 1111.765625 C 1131.6875 1108.277344 1129.070312 1105.949219 1125.875 1105.949219 Z M 1125.875 1411.800781 C 1123.257812 1411.800781 1121.222656 1413.546875 1120.351562 1415.871094 L 1013.070312 1415.871094 L 943.875 1346.675781 L 763.910156 1346.675781 L 720.589844 1389.996094 C 719.71875 1389.414062 718.847656 1389.125 717.683594 1389.125 C 714.484375 1389.125 711.867188 1391.742188 711.867188 1394.9375 C 711.867188 1398.136719 714.484375 1400.753906 717.683594 1400.753906 C 720.882812 1400.753906 723.5 1398.136719 723.5 1394.9375 C 723.5 1393.777344 723.207031 1392.902344 722.625 1392.03125 L 765.074219 1349.585938 L 942.710938 1349.585938 L 1011.90625 1418.78125 L 1120.351562 1418.78125 C 1120.929688 1421.105469 1123.257812 1422.851562 1125.875 1422.851562 C 1129.070312 1422.851562 1131.6875 1420.234375 1131.6875 1417.035156 C 1131.6875 1414.128906 1129.070312 1411.800781 1125.875 1411.800781 Z M 977.890625 1196.078125 C 978.472656 1198.402344 980.796875 1200.148438 983.414062 1200.148438 C 986.613281 1200.148438 989.230469 1197.53125 989.230469 1194.332031 C 989.230469 1191.132812 986.613281 1188.519531 983.414062 1188.519531 C 980.796875 1188.519531 978.761719 1190.261719 977.890625 1192.589844 L 883.691406 1192.589844 L 812.460938 1263.527344 C 810.425781 1262.363281 807.519531 1262.65625 805.777344 1264.398438 C 803.449219 1266.726562 803.449219 1270.214844 805.777344 1272.539062 C 808.101562 1274.867188 811.589844 1274.867188 813.917969 1272.539062 C 815.660156 1270.796875 815.953125 1267.886719 814.789062 1265.851562 L 885.144531 1195.785156 L 977.890625 1195.785156 Z M 1125.875 1284.75 C 1123.257812 1284.75 1121.222656 1286.496094 1120.351562 1288.820312 L 1052.027344 1288.820312 L 1009.582031 1331.269531 C 1007.546875 1330.105469 1004.636719 1330.394531 1002.601562 1332.140625 C 1000.277344 1334.464844 1000.277344 1337.957031 1002.601562 1340.28125 C 1004.929688 1342.605469 1008.417969 1342.605469 1010.742188 1340.28125 C 1012.488281 1338.535156 1012.777344 1335.628906 1011.617188 1333.59375 L 1053.191406 1292.019531 L 1120.351562 1292.019531 C 1120.929688 1294.34375 1123.257812 1296.089844 1125.875 1296.089844 C 1129.070312 1296.089844 1131.6875 1293.472656 1131.6875 1290.273438 C 1131.6875 1287.367188 1129.070312 1284.75 1125.875 1284.75 Z M 965.390625 1399.300781 C 962.773438 1399.300781 960.738281 1401.042969 959.863281 1403.371094 L 801.414062 1403.371094 L 772.921875 1431.863281 L 609.238281 1431.863281 C 608.65625 1429.535156 606.332031 1427.792969 603.714844 1427.792969 C 600.519531 1427.792969 597.902344 1430.410156 597.902344 1433.605469 C 597.902344 1436.804688 600.519531 1439.421875 603.714844 1439.421875 C 606.332031 1439.421875 608.367188 1437.675781 609.238281 1435.351562 L 774.085938 1435.351562 L 802.578125 1406.859375 L 959.863281 1406.859375 C 960.445312 1409.183594 962.773438 1410.929688 965.390625 1410.929688 C 968.585938 1410.929688 971.203125 1408.3125 971.203125 1405.113281 C 970.914062 1401.917969 968.585938 1399.300781 965.390625 1399.300781 Z M 737.164062 1199.566406 C 739.488281 1197.238281 739.488281 1193.75 737.164062 1191.425781 C 734.835938 1189.101562 731.347656 1189.101562 729.023438 1191.425781 C 727.277344 1193.167969 726.988281 1196.078125 728.148438 1198.113281 L 631.335938 1294.925781 C 629.300781 1293.765625 626.394531 1294.054688 624.359375 1295.800781 C 622.03125 1298.125 622.03125 1301.613281 624.359375 1303.9375 C 626.683594 1306.265625 630.171875 1306.265625 632.5 1303.9375 C 634.242188 1302.195312 634.535156 1299.289062 633.371094 1297.253906 L 730.183594 1200.4375 C 732.511719 1201.601562 735.128906 1201.308594 737.164062 1199.566406 Z M 1099.125 683.222656 C 1099.707031 685.546875 1102.035156 687.292969 1104.652344 687.292969 C 1107.847656 687.292969 1110.464844 684.675781 1110.464844 681.476562 C 1110.464844 678.28125 1107.847656 675.664062 1104.652344 675.664062 C 1102.035156 675.664062 1100 677.40625 1099.125 679.734375 L 853.746094 679.734375 L 768.269531 765.789062 C 767.398438 765.210938 766.527344 764.917969 765.363281 764.917969 C 762.164062 764.917969 759.550781 767.535156 759.550781 770.734375 C 759.550781 773.929688 762.164062 776.546875 765.363281 776.546875 C 768.5625 776.546875 771.179688 773.929688 771.179688 770.734375 C 771.179688 769.570312 770.886719 768.699219 770.304688 767.824219 L 855.199219 682.929688 L 1099.125 682.929688 Z M 1125.875 987.328125 C 1123.257812 987.328125 1121.222656 989.074219 1120.351562 991.398438 L 1011.90625 991.398438 C 1011.324219 989.074219 1009 987.328125 1006.382812 987.328125 C 1003.183594 987.328125 1000.566406 989.945312 1000.566406 993.144531 C 1000.566406 996.34375 1003.183594 998.960938 1006.382812 998.960938 C 1009 998.960938 1011.035156 997.214844 1011.90625 994.890625 L 1120.351562 994.890625 C 1120.933594 997.214844 1123.257812 998.960938 1125.875 998.960938 C 1129.070312 998.960938 1131.6875 996.34375 1131.6875 993.144531 C 1131.6875 989.945312 1129.070312 987.328125 1125.875 987.328125 Z M 1125.875 987.328125 " fill-opacity="1" fill-rule="nonzero"/></g></g></g></g><g clip-path="url(#7f5d7687b1)"><path fill="#ff4700" d="M 426.707031 682.5 L 645.175781 682.5 L 645.175781 747.382812 L 426.707031 747.382812 Z M 426.707031 682.5 " fill-opacity="1" fill-rule="nonzero"/></g><g fill="#ffffff" fill-opacity="1"><g transform="translate(74.484387, 1372.424981)"><g><path d="M 21.6875 -15.796875 C 23.625 -15.796875 25.164062 -15.207031 26.3125 -14.03125 C 27.46875 -12.851562 28.046875 -11.222656 28.046875 -9.140625 L 28.046875 0 L 23.28125 0 L 23.28125 -8.484375 C 23.28125 -9.492188 23.015625 -10.273438 22.484375 -10.828125 C 21.953125 -11.378906 21.21875 -11.65625 20.28125 -11.65625 C 19.34375 -11.65625 18.609375 -11.378906 18.078125 -10.828125 C 17.546875 -10.273438 17.28125 -9.492188 17.28125 -8.484375 L 17.28125 0 L 12.515625 0 L 12.515625 -8.484375 C 12.515625 -9.492188 12.25 -10.273438 11.71875 -10.828125 C 11.1875 -11.378906 10.457031 -11.65625 9.53125 -11.65625 C 8.59375 -11.65625 7.859375 -11.378906 7.328125 -10.828125 C 6.796875 -10.273438 6.53125 -9.492188 6.53125 -8.484375 L 6.53125 0 L 1.734375 0 L 1.734375 -15.625 L 6.53125 -15.625 L 6.53125 -13.671875 C 7.007812 -14.328125 7.640625 -14.84375 8.421875 -15.21875 C 9.210938 -15.601562 10.101562 -15.796875 11.09375 -15.796875 C 12.269531 -15.796875 13.316406 -15.539062 14.234375 -15.03125 C 15.160156 -14.53125 15.890625 -13.816406 16.421875 -12.890625 C 16.960938 -13.742188 17.695312 -14.441406 18.625 -14.984375 C 19.5625 -15.523438 20.582031 -15.796875 21.6875 -15.796875 Z M 21.6875 -15.796875 "/></g></g></g><g fill="#ffffff" fill-opacity="1"><g transform="translate(104.144655, 1372.424981)"><g><path d="M 0.78125 -7.84375 C 0.78125 -9.445312 1.082031 -10.851562 1.6875 -12.0625 C 2.300781 -13.28125 3.128906 -14.21875 4.171875 -14.875 C 5.222656 -15.53125 6.390625 -15.859375 7.671875 -15.859375 C 8.773438 -15.859375 9.742188 -15.632812 10.578125 -15.1875 C 11.410156 -14.738281 12.050781 -14.148438 12.5 -13.421875 L 12.5 -15.625 L 17.28125 -15.625 L 17.28125 0 L 12.5 0 L 12.5 -2.21875 C 12.03125 -1.488281 11.378906 -0.898438 10.546875 -0.453125 C 9.710938 -0.00390625 8.742188 0.21875 7.640625 0.21875 C 6.378906 0.21875 5.222656 -0.109375 4.171875 -0.765625 C 3.128906 -1.429688 2.300781 -2.375 1.6875 -3.59375 C 1.082031 -4.820312 0.78125 -6.238281 0.78125 -7.84375 Z M 12.5 -7.8125 C 12.5 -9.007812 12.164062 -9.953125 11.5 -10.640625 C 10.832031 -11.335938 10.023438 -11.6875 9.078125 -11.6875 C 8.117188 -11.6875 7.304688 -11.34375 6.640625 -10.65625 C 5.984375 -9.976562 5.65625 -9.039062 5.65625 -7.84375 C 5.65625 -6.644531 5.984375 -5.695312 6.640625 -5 C 7.304688 -4.300781 8.117188 -3.953125 9.078125 -3.953125 C 10.023438 -3.953125 10.832031 -4.296875 11.5 -4.984375 C 12.164062 -5.671875 12.5 -6.613281 12.5 -7.8125 Z M 12.5 -7.8125 "/></g></g></g><g fill="#ffffff" fill-opacity="1"><g transform="translate(123.161954, 1372.424981)"><g><path d="M 0.78125 -7.84375 C 0.78125 -9.445312 1.082031 -10.851562 1.6875 -12.0625 C 2.300781 -13.28125 3.128906 -14.21875 4.171875 -14.875 C 5.222656 -15.53125 6.390625 -15.859375 7.671875 -15.859375 C 8.703125 -15.859375 9.640625 -15.640625 10.484375 -15.203125 C 11.335938 -14.773438 12.007812 -14.195312 12.5 -13.46875 L 12.5 -20.734375 L 17.28125 -20.734375 L 17.28125 0 L 12.5 0 L 12.5 -2.234375 C 12.050781 -1.492188 11.410156 -0.898438 10.578125 -0.453125 C 9.742188 -0.00390625 8.773438 0.21875 7.671875 0.21875 C 6.390625 0.21875 5.222656 -0.109375 4.171875 -0.765625 C 3.128906 -1.429688 2.300781 -2.375 1.6875 -3.59375 C 1.082031 -4.820312 0.78125 -6.238281 0.78125 -7.84375 Z M 12.5 -7.8125 C 12.5 -9.007812 12.164062 -9.953125 11.5 -10.640625 C 10.832031 -11.335938 10.023438 -11.6875 9.078125 -11.6875 C 8.117188 -11.6875 7.304688 -11.34375 6.640625 -10.65625 C 5.984375 -9.976562 5.65625 -9.039062 5.65625 -7.84375 C 5.65625 -6.644531 5.984375 -5.695312 6.640625 -5 C 7.304688 -4.300781 8.117188 -3.953125 9.078125 -3.953125 C 10.023438 -3.953125 10.832031 -4.296875 11.5 -4.984375 C 12.164062 -5.671875 12.5 -6.613281 12.5 -7.8125 Z M 12.5 -7.8125 "/></g></g></g><g fill="#ffffff" fill-opacity="1"><g transform="translate(142.179252, 1372.424981)"><g><path d="M 6.53125 -13.03125 C 7.09375 -13.882812 7.789062 -14.554688 8.625 -15.046875 C 9.46875 -15.546875 10.40625 -15.796875 11.4375 -15.796875 L 11.4375 -10.734375 L 10.109375 -10.734375 C 8.921875 -10.734375 8.023438 -10.472656 7.421875 -9.953125 C 6.828125 -9.441406 6.53125 -8.539062 6.53125 -7.25 L 6.53125 0 L 1.734375 0 L 1.734375 -15.625 L 6.53125 -15.625 Z M 6.53125 -13.03125 "/></g></g></g><g fill="#ffffff" fill-opacity="1"><g transform="translate(154.166594, 1372.424981)"><g><path d="M 4.140625 -17.25 C 3.304688 -17.25 2.617188 -17.5 2.078125 -18 C 1.546875 -18.5 1.28125 -19.109375 1.28125 -19.828125 C 1.28125 -20.578125 1.546875 -21.195312 2.078125 -21.6875 C 2.617188 -22.1875 3.304688 -22.4375 4.140625 -22.4375 C 4.960938 -22.4375 5.640625 -22.1875 6.171875 -21.6875 C 6.703125 -21.195312 6.96875 -20.578125 6.96875 -19.828125 C 6.96875 -19.109375 6.703125 -18.5 6.171875 -18 C 5.640625 -17.5 4.960938 -17.25 4.140625 -17.25 Z M 6.53125 -15.625 L 6.53125 0 L 1.734375 0 L 1.734375 -15.625 Z M 6.53125 -15.625 "/></g></g></g><g fill="#ffffff" fill-opacity="1"><g transform="translate(162.428895, 1372.424981)"><g><path d="M 0.78125 -7.84375 C 0.78125 -9.445312 1.082031 -10.851562 1.6875 -12.0625 C 2.300781 -13.28125 3.128906 -14.21875 4.171875 -14.875 C 5.222656 -15.53125 6.390625 -15.859375 7.671875 -15.859375 C 8.703125 -15.859375 9.640625 -15.640625 10.484375 -15.203125 C 11.335938 -14.773438 12.007812 -14.195312 12.5 -13.46875 L 12.5 -20.734375 L 17.28125 -20.734375 L 17.28125 0 L 12.5 0 L 12.5 -2.234375 C 12.050781 -1.492188 11.410156 -0.898438 10.578125 -0.453125 C 9.742188 -0.00390625 8.773438 0.21875 7.671875 0.21875 C 6.390625 0.21875 5.222656 -0.109375 4.171875 -0.765625 C 3.128906 -1.429688 2.300781 -2.375 1.6875 -3.59375 C 1.082031 -4.820312 0.78125 -6.238281 0.78125 -7.84375 Z M 12.5 -7.8125 C 12.5 -9.007812 12.164062 -9.953125 11.5 -10.640625 C 10.832031 -11.335938 10.023438 -11.6875 9.078125 -11.6875 C 8.117188 -11.6875 7.304688 -11.34375 6.640625 -10.65625 C 5.984375 -9.976562 5.65625 -9.039062 5.65625 -7.84375 C 5.65625 -6.644531 5.984375 -5.695312 6.640625 -5 C 7.304688 -4.300781 8.117188 -3.953125 9.078125 -3.953125 C 10.023438 -3.953125 10.832031 -4.296875 11.5 -4.984375 C 12.164062 -5.671875 12.5 -6.613281 12.5 -7.8125 Z M 12.5 -7.8125 "/></g></g></g><g fill="#ffffff" fill-opacity="1"><g transform="translate(181.446194, 1372.424981)"><g><path d="M 17.3125 -18.71875 C 19.519531 -18.71875 21.441406 -18.300781 23.078125 -17.46875 C 24.722656 -16.632812 25.988281 -15.460938 26.875 -13.953125 C 27.769531 -12.453125 28.21875 -10.722656 28.21875 -8.765625 C 28.21875 -7.179688 27.941406 -5.707031 27.390625 -4.34375 C 26.835938 -2.976562 26.023438 -1.890625 24.953125 -1.078125 C 23.878906 -0.265625 22.601562 0.140625 21.125 0.140625 C 20.132812 0.140625 19.316406 -0.0507812 18.671875 -0.4375 C 18.023438 -0.832031 17.59375 -1.382812 17.375 -2.09375 C 16.84375 -1.375 16.164062 -0.8125 15.34375 -0.40625 C 14.53125 0 13.632812 0.203125 12.65625 0.203125 C 11.28125 0.203125 10.191406 -0.210938 9.390625 -1.046875 C 8.597656 -1.878906 8.203125 -3.015625 8.203125 -4.453125 C 8.203125 -5.816406 8.484375 -7.097656 9.046875 -8.296875 C 9.609375 -9.503906 10.382812 -10.472656 11.375 -11.203125 C 12.363281 -11.929688 13.472656 -12.296875 14.703125 -12.296875 C 16.273438 -12.296875 17.34375 -11.738281 17.90625 -10.625 L 18.15625 -12.109375 L 22.015625 -12.109375 L 20.78125 -5.078125 C 20.726562 -4.734375 20.703125 -4.429688 20.703125 -4.171875 C 20.703125 -3.347656 21.066406 -2.9375 21.796875 -2.9375 C 22.691406 -2.9375 23.375 -3.507812 23.84375 -4.65625 C 24.320312 -5.8125 24.5625 -7.132812 24.5625 -8.625 C 24.5625 -10.769531 23.882812 -12.453125 22.53125 -13.671875 C 21.175781 -14.890625 19.28125 -15.5 16.84375 -15.5 C 14.75 -15.5 12.847656 -14.992188 11.140625 -13.984375 C 9.429688 -12.972656 8.085938 -11.59375 7.109375 -9.84375 C 6.140625 -8.101562 5.65625 -6.1875 5.65625 -4.09375 C 5.65625 -1.832031 6.3125 -0.078125 7.625 1.171875 C 8.945312 2.421875 10.796875 3.046875 13.171875 3.046875 C 15.015625 3.046875 16.664062 2.710938 18.125 2.046875 L 18.875 5.09375 C 17.050781 5.894531 15 6.296875 12.71875 6.296875 C 10.59375 6.296875 8.71875 5.882812 7.09375 5.0625 C 5.476562 4.25 4.234375 3.082031 3.359375 1.5625 C 2.484375 0.0507812 2.046875 -1.707031 2.046875 -3.71875 C 2.046875 -6.539062 2.707031 -9.09375 4.03125 -11.375 C 5.351562 -13.664062 7.175781 -15.460938 9.5 -16.765625 C 11.832031 -18.066406 14.4375 -18.71875 17.3125 -18.71875 Z M 14.234375 -3.25 C 14.753906 -3.25 15.242188 -3.40625 15.703125 -3.71875 C 16.160156 -4.039062 16.523438 -4.46875 16.796875 -5 C 17.066406 -5.53125 17.203125 -6.101562 17.203125 -6.71875 C 17.203125 -7.351562 17.023438 -7.867188 16.671875 -8.265625 C 16.316406 -8.671875 15.832031 -8.875 15.21875 -8.875 C 14.394531 -8.875 13.710938 -8.519531 13.171875 -7.8125 C 12.628906 -7.101562 12.359375 -6.265625 12.359375 -5.296875 C 12.359375 -4.679688 12.515625 -4.1875 12.828125 -3.8125 C 13.148438 -3.4375 13.617188 -3.25 14.234375 -3.25 Z M 14.234375 -3.25 "/></g></g></g><g fill="#ffffff" fill-opacity="1"><g transform="translate(211.69462, 1372.424981)"><g><path d="M 9.578125 -11.65625 L 7 -11.65625 L 7 0 L 2.21875 0 L 2.21875 -11.65625 L 0.46875 -11.65625 L 0.46875 -15.625 L 2.21875 -15.625 L 2.21875 -16.078125 C 2.21875 -18.003906 2.765625 -19.46875 3.859375 -20.46875 C 4.960938 -21.46875 6.582031 -21.96875 8.71875 -21.96875 C 9.070312 -21.96875 9.332031 -21.957031 9.5 -21.9375 L 9.5 -17.875 C 8.582031 -17.925781 7.9375 -17.789062 7.5625 -17.46875 C 7.1875 -17.15625 7 -16.585938 7 -15.765625 L 7 -15.625 L 9.578125 -15.625 Z M 9.578125 -11.65625 "/></g></g></g><g fill="#ffffff" fill-opacity="1"><g transform="translate(221.777424, 1372.424981)"><g><path d="M 0.78125 -7.84375 C 0.78125 -9.445312 1.082031 -10.851562 1.6875 -12.0625 C 2.300781 -13.28125 3.128906 -14.21875 4.171875 -14.875 C 5.222656 -15.53125 6.390625 -15.859375 7.671875 -15.859375 C 8.773438 -15.859375 9.742188 -15.632812 10.578125 -15.1875 C 11.410156 -14.738281 12.050781 -14.148438 12.5 -13.421875 L 12.5 -15.625 L 17.28125 -15.625 L 17.28125 0 L 12.5 0 L 12.5 -2.21875 C 12.03125 -1.488281 11.378906 -0.898438 10.546875 -0.453125 C 9.710938 -0.00390625 8.742188 0.21875 7.640625 0.21875 C 6.378906 0.21875 5.222656 -0.109375 4.171875 -0.765625 C 3.128906 -1.429688 2.300781 -2.375 1.6875 -3.59375 C 1.082031 -4.820312 0.78125 -6.238281 0.78125 -7.84375 Z M 12.5 -7.8125 C 12.5 -9.007812 12.164062 -9.953125 11.5 -10.640625 C 10.832031 -11.335938 10.023438 -11.6875 9.078125 -11.6875 C 8.117188 -11.6875 7.304688 -11.34375 6.640625 -10.65625 C 5.984375 -9.976562 5.65625 -9.039062 5.65625 -7.84375 C 5.65625 -6.644531 5.984375 -5.695312 6.640625 -5 C 7.304688 -4.300781 8.117188 -3.953125 9.078125 -3.953125 C 10.023438 -3.953125 10.832031 -4.296875 11.5 -4.984375 C 12.164062 -5.671875 12.5 -6.613281 12.5 -7.8125 Z M 12.5 -7.8125 "/></g></g></g><g fill="#ffffff" fill-opacity="1"><g transform="translate(240.794723, 1372.424981)"><g><path d="M 0.78125 -7.8125 C 0.78125 -9.4375 1.113281 -10.851562 1.78125 -12.0625 C 2.445312 -13.28125 3.367188 -14.21875 4.546875 -14.875 C 5.734375 -15.53125 7.09375 -15.859375 8.625 -15.859375 C 10.59375 -15.859375 12.234375 -15.34375 13.546875 -14.3125 C 14.859375 -13.289062 15.722656 -11.84375 16.140625 -9.96875 L 11.03125 -9.96875 C 10.601562 -11.164062 9.773438 -11.765625 8.546875 -11.765625 C 7.671875 -11.765625 6.96875 -11.421875 6.4375 -10.734375 C 5.914062 -10.054688 5.65625 -9.082031 5.65625 -7.8125 C 5.65625 -6.539062 5.914062 -5.5625 6.4375 -4.875 C 6.96875 -4.195312 7.671875 -3.859375 8.546875 -3.859375 C 9.773438 -3.859375 10.601562 -4.457031 11.03125 -5.65625 L 16.140625 -5.65625 C 15.722656 -3.820312 14.851562 -2.382812 13.53125 -1.34375 C 12.207031 -0.300781 10.570312 0.21875 8.625 0.21875 C 7.09375 0.21875 5.734375 -0.101562 4.546875 -0.75 C 3.367188 -1.40625 2.445312 -2.335938 1.78125 -3.546875 C 1.113281 -4.765625 0.78125 -6.1875 0.78125 -7.8125 Z M 0.78125 -7.8125 "/></g></g></g><g fill="#ffffff" fill-opacity="1"><g transform="translate(257.739439, 1372.424981)"><g><path d="M 10.453125 -4.0625 L 10.453125 0 L 8.015625 0 C 6.273438 0 4.921875 -0.421875 3.953125 -1.265625 C 2.984375 -2.117188 2.5 -3.507812 2.5 -5.4375 L 2.5 -11.65625 L 0.59375 -11.65625 L 0.59375 -15.625 L 2.5 -15.625 L 2.5 -19.4375 L 7.28125 -19.4375 L 7.28125 -15.625 L 10.421875 -15.625 L 10.421875 -11.65625 L 7.28125 -11.65625 L 7.28125 -5.375 C 7.28125 -4.90625 7.390625 -4.566406 7.609375 -4.359375 C 7.835938 -4.160156 8.210938 -4.0625 8.734375 -4.0625 Z M 10.453125 -4.0625 "/></g></g></g><g fill="#ffffff" fill-opacity="1"><g transform="translate(269.110608, 1372.424981)"><g><path d="M 8.859375 0.21875 C 7.328125 0.21875 5.945312 -0.101562 4.71875 -0.75 C 3.5 -1.40625 2.535156 -2.335938 1.828125 -3.546875 C 1.128906 -4.765625 0.78125 -6.1875 0.78125 -7.8125 C 0.78125 -9.414062 1.132812 -10.828125 1.84375 -12.046875 C 2.550781 -13.273438 3.519531 -14.21875 4.75 -14.875 C 5.988281 -15.53125 7.375 -15.859375 8.90625 -15.859375 C 10.4375 -15.859375 11.816406 -15.53125 13.046875 -14.875 C 14.285156 -14.21875 15.257812 -13.273438 15.96875 -12.046875 C 16.675781 -10.828125 17.03125 -9.414062 17.03125 -7.8125 C 17.03125 -6.207031 16.671875 -4.789062 15.953125 -3.5625 C 15.234375 -2.34375 14.253906 -1.40625 13.015625 -0.75 C 11.773438 -0.101562 10.390625 0.21875 8.859375 0.21875 Z M 8.859375 -3.921875 C 9.765625 -3.921875 10.539062 -4.253906 11.1875 -4.921875 C 11.832031 -5.597656 12.15625 -6.5625 12.15625 -7.8125 C 12.15625 -9.0625 11.84375 -10.019531 11.21875 -10.6875 C 10.59375 -11.363281 9.820312 -11.703125 8.90625 -11.703125 C 7.976562 -11.703125 7.203125 -11.367188 6.578125 -10.703125 C 5.960938 -10.046875 5.65625 -9.082031 5.65625 -7.8125 C 5.65625 -6.5625 5.957031 -5.597656 6.5625 -4.921875 C 7.175781 -4.253906 7.941406 -3.921875 8.859375 -3.921875 Z M 8.859375 -3.921875 "/></g></g></g><g fill="#ffffff" fill-opacity="1"><g transform="translate(286.95158, 1372.424981)"><g><path d="M 6.53125 -13.03125 C 7.09375 -13.882812 7.789062 -14.554688 8.625 -15.046875 C 9.46875 -15.546875 10.40625 -15.796875 11.4375 -15.796875 L 11.4375 -10.734375 L 10.109375 -10.734375 C 8.921875 -10.734375 8.023438 -10.472656 7.421875 -9.953125 C 6.828125 -9.441406 6.53125 -8.539062 6.53125 -7.25 L 6.53125 0 L 1.734375 0 L 1.734375 -15.625 L 6.53125 -15.625 Z M 6.53125 -13.03125 "/></g></g></g><g fill="#ffffff" fill-opacity="1"><g transform="translate(298.938921, 1372.424981)"><g><path d="M 4.140625 -17.25 C 3.304688 -17.25 2.617188 -17.5 2.078125 -18 C 1.546875 -18.5 1.28125 -19.109375 1.28125 -19.828125 C 1.28125 -20.578125 1.546875 -21.195312 2.078125 -21.6875 C 2.617188 -22.1875 3.304688 -22.4375 4.140625 -22.4375 C 4.960938 -22.4375 5.640625 -22.1875 6.171875 -21.6875 C 6.703125 -21.195312 6.96875 -20.578125 6.96875 -19.828125 C 6.96875 -19.109375 6.703125 -18.5 6.171875 -18 C 5.640625 -17.5 4.960938 -17.25 4.140625 -17.25 Z M 6.53125 -15.625 L 6.53125 0 L 1.734375 0 L 1.734375 -15.625 Z M 6.53125 -15.625 "/></g></g></g><g fill="#ffffff" fill-opacity="1"><g transform="translate(307.201212, 1372.424981)"><g><path d="M 0.78125 -7.84375 C 0.78125 -9.445312 1.082031 -10.851562 1.6875 -12.0625 C 2.300781 -13.28125 3.128906 -14.21875 4.171875 -14.875 C 5.222656 -15.53125 6.390625 -15.859375 7.671875 -15.859375 C 8.773438 -15.859375 9.742188 -15.632812 10.578125 -15.1875 C 11.410156 -14.738281 12.050781 -14.148438 12.5 -13.421875 L 12.5 -15.625 L 17.28125 -15.625 L 17.28125 0 L 12.5 0 L 12.5 -2.21875 C 12.03125 -1.488281 11.378906 -0.898438 10.546875 -0.453125 C 9.710938 -0.00390625 8.742188 0.21875 7.640625 0.21875 C 6.378906 0.21875 5.222656 -0.109375 4.171875 -0.765625 C 3.128906 -1.429688 2.300781 -2.375 1.6875 -3.59375 C 1.082031 -4.820312 0.78125 -6.238281 0.78125 -7.84375 Z M 12.5 -7.8125 C 12.5 -9.007812 12.164062 -9.953125 11.5 -10.640625 C 10.832031 -11.335938 10.023438 -11.6875 9.078125 -11.6875 C 8.117188 -11.6875 7.304688 -11.34375 6.640625 -10.65625 C 5.984375 -9.976562 5.65625 -9.039062 5.65625 -7.84375 C 5.65625 -6.644531 5.984375 -5.695312 6.640625 -5 C 7.304688 -4.300781 8.117188 -3.953125 9.078125 -3.953125 C 10.023438 -3.953125 10.832031 -4.296875 11.5 -4.984375 C 12.164062 -5.671875 12.5 -6.613281 12.5 -7.8125 Z M 12.5 -7.8125 "/></g></g></g><g fill="#ffffff" fill-opacity="1"><g transform="translate(326.218498, 1372.424981)"><g><path d="M 9.578125 -11.65625 L 7 -11.65625 L 7 0 L 2.21875 0 L 2.21875 -11.65625 L 0.46875 -11.65625 L 0.46875 -15.625 L 2.21875 -15.625 L 2.21875 -16.078125 C 2.21875 -18.003906 2.765625 -19.46875 3.859375 -20.46875 C 4.960938 -21.46875 6.582031 -21.96875 8.71875 -21.96875 C 9.070312 -21.96875 9.332031 -21.957031 9.5 -21.9375 L 9.5 -17.875 C 8.582031 -17.925781 7.9375 -17.789062 7.5625 -17.46875 C 7.1875 -17.15625 7 -16.585938 7 -15.765625 L 7 -15.625 L 9.578125 -15.625 Z M 9.578125 -11.65625 "/></g></g></g><g fill="#ffffff" fill-opacity="1"><g transform="translate(336.301291, 1372.424981)"><g><path d="M 15.65625 -16.28125 L 6.921875 -16.28125 L 6.921875 -12.40625 C 7.296875 -12.820312 7.816406 -13.160156 8.484375 -13.421875 C 9.160156 -13.679688 9.890625 -13.8125 10.671875 -13.8125 C 12.078125 -13.8125 13.238281 -13.492188 14.15625 -12.859375 C 15.082031 -12.222656 15.757812 -11.398438 16.1875 -10.390625 C 16.625 -9.378906 16.84375 -8.285156 16.84375 -7.109375 C 16.84375 -4.929688 16.222656 -3.203125 14.984375 -1.921875 C 13.753906 -0.640625 12.019531 0 9.78125 0 C 8.28125 0 6.976562 -0.253906 5.875 -0.765625 C 4.78125 -1.285156 3.929688 -2 3.328125 -2.90625 C 2.734375 -3.820312 2.410156 -4.878906 2.359375 -6.078125 L 7.03125 -6.078125 C 7.144531 -5.492188 7.414062 -5.007812 7.84375 -4.625 C 8.269531 -4.25 8.859375 -4.0625 9.609375 -4.0625 C 10.484375 -4.0625 11.132812 -4.34375 11.5625 -4.90625 C 12 -5.46875 12.21875 -6.210938 12.21875 -7.140625 C 12.21875 -8.054688 11.992188 -8.753906 11.546875 -9.234375 C 11.097656 -9.722656 10.441406 -9.96875 9.578125 -9.96875 C 8.941406 -9.96875 8.414062 -9.8125 8 -9.5 C 7.59375 -9.195312 7.328125 -8.796875 7.203125 -8.296875 L 2.578125 -8.296875 L 2.578125 -20.484375 L 15.65625 -20.484375 Z M 15.65625 -16.28125 "/></g></g></g><g fill="#ffffff" fill-opacity="1"><g transform="translate(354.506368, 1372.424981)"><g><path d="M 3.984375 0.21875 C 3.140625 0.21875 2.453125 -0.0234375 1.921875 -0.515625 C 1.390625 -1.015625 1.125 -1.628906 1.125 -2.359375 C 1.125 -3.097656 1.390625 -3.71875 1.921875 -4.21875 C 2.453125 -4.726562 3.140625 -4.984375 3.984375 -4.984375 C 4.796875 -4.984375 5.46875 -4.726562 6 -4.21875 C 6.539062 -3.71875 6.8125 -3.097656 6.8125 -2.359375 C 6.8125 -1.628906 6.539062 -1.015625 6 -0.515625 C 5.46875 -0.0234375 4.796875 0.21875 3.984375 0.21875 Z M 3.984375 0.21875 "/></g></g></g><g fill="#ffffff" fill-opacity="1"><g transform="translate(362.404576, 1372.424981)"><g><path d="M 8.859375 0.21875 C 7.328125 0.21875 5.945312 -0.101562 4.71875 -0.75 C 3.5 -1.40625 2.535156 -2.335938 1.828125 -3.546875 C 1.128906 -4.765625 0.78125 -6.1875 0.78125 -7.8125 C 0.78125 -9.414062 1.132812 -10.828125 1.84375 -12.046875 C 2.550781 -13.273438 3.519531 -14.21875 4.75 -14.875 C 5.988281 -15.53125 7.375 -15.859375 8.90625 -15.859375 C 10.4375 -15.859375 11.816406 -15.53125 13.046875 -14.875 C 14.285156 -14.21875 15.257812 -13.273438 15.96875 -12.046875 C 16.675781 -10.828125 17.03125 -9.414062 17.03125 -7.8125 C 17.03125 -6.207031 16.671875 -4.789062 15.953125 -3.5625 C 15.234375 -2.34375 14.253906 -1.40625 13.015625 -0.75 C 11.773438 -0.101562 10.390625 0.21875 8.859375 0.21875 Z M 8.859375 -3.921875 C 9.765625 -3.921875 10.539062 -4.253906 11.1875 -4.921875 C 11.832031 -5.597656 12.15625 -6.5625 12.15625 -7.8125 C 12.15625 -9.0625 11.84375 -10.019531 11.21875 -10.6875 C 10.59375 -11.363281 9.820312 -11.703125 8.90625 -11.703125 C 7.976562 -11.703125 7.203125 -11.367188 6.578125 -10.703125 C 5.960938 -10.046875 5.65625 -9.082031 5.65625 -7.8125 C 5.65625 -6.5625 5.957031 -5.597656 6.5625 -4.921875 C 7.175781 -4.253906 7.941406 -3.921875 8.859375 -3.921875 Z M 8.859375 -3.921875 "/></g></g></g><g fill="#ffffff" fill-opacity="1"><g transform="translate(380.245548, 1372.424981)"><g><path d="M 6.53125 -13.03125 C 7.09375 -13.882812 7.789062 -14.554688 8.625 -15.046875 C 9.46875 -15.546875 10.40625 -15.796875 11.4375 -15.796875 L 11.4375 -10.734375 L 10.109375 -10.734375 C 8.921875 -10.734375 8.023438 -10.472656 7.421875 -9.953125 C 6.828125 -9.441406 6.53125 -8.539062 6.53125 -7.25 L 6.53125 0 L 1.734375 0 L 1.734375 -15.625 L 6.53125 -15.625 Z M 6.53125 -13.03125 "/></g></g></g><g fill="#ffffff" fill-opacity="1"><g transform="translate(392.232889, 1372.424981)"><g><path d="M 7.671875 -15.859375 C 8.773438 -15.859375 9.742188 -15.632812 10.578125 -15.1875 C 11.410156 -14.738281 12.050781 -14.148438 12.5 -13.421875 L 12.5 -15.625 L 17.28125 -15.625 L 17.28125 -0.03125 C 17.28125 1.40625 16.992188 2.707031 16.421875 3.875 C 15.859375 5.039062 14.992188 5.96875 13.828125 6.65625 C 12.660156 7.351562 11.207031 7.703125 9.46875 7.703125 C 7.15625 7.703125 5.28125 7.15625 3.84375 6.0625 C 2.40625 4.96875 1.582031 3.488281 1.375 1.625 L 6.109375 1.625 C 6.253906 2.21875 6.609375 2.6875 7.171875 3.03125 C 7.734375 3.382812 8.425781 3.5625 9.25 3.5625 C 10.238281 3.5625 11.023438 3.273438 11.609375 2.703125 C 12.203125 2.128906 12.5 1.21875 12.5 -0.03125 L 12.5 -2.234375 C 12.03125 -1.515625 11.382812 -0.925781 10.5625 -0.46875 C 9.738281 -0.0078125 8.773438 0.21875 7.671875 0.21875 C 6.390625 0.21875 5.222656 -0.109375 4.171875 -0.765625 C 3.128906 -1.429688 2.300781 -2.375 1.6875 -3.59375 C 1.082031 -4.820312 0.78125 -6.238281 0.78125 -7.84375 C 0.78125 -9.445312 1.082031 -10.851562 1.6875 -12.0625 C 2.300781 -13.28125 3.128906 -14.21875 4.171875 -14.875 C 5.222656 -15.53125 6.390625 -15.859375 7.671875 -15.859375 Z M 12.5 -7.8125 C 12.5 -9.007812 12.164062 -9.953125 11.5 -10.640625 C 10.832031 -11.335938 10.023438 -11.6875 9.078125 -11.6875 C 8.117188 -11.6875 7.304688 -11.34375 6.640625 -10.65625 C 5.984375 -9.976562 5.65625 -9.039062 5.65625 -7.84375 C 5.65625 -6.644531 5.984375 -5.695312 6.640625 -5 C 7.304688 -4.300781 8.117188 -3.953125 9.078125 -3.953125 C 10.023438 -3.953125 10.832031 -4.296875 11.5 -4.984375 C 12.164062 -5.671875 12.5 -6.613281 12.5 -7.8125 Z M 12.5 -7.8125 "/></g></g></g><g fill="#ffffff" fill-opacity="1"><g transform="translate(411.257795, 1372.424981)"><g/></g></g><g fill="#ffffff" fill-opacity="1"><g transform="translate(417.195447, 1372.424981)"><g/></g></g><g fill="#ffffff" fill-opacity="1"><g transform="translate(423.133099, 1372.424981)"><g/></g></g><g fill="#ffffff" fill-opacity="1"><g transform="translate(429.082016, 1372.424981)"><g><path d="M 4.265625 -6.21875 C 3.421875 -6.21875 2.734375 -6.460938 2.203125 -6.953125 C 1.671875 -7.453125 1.40625 -8.066406 1.40625 -8.796875 C 1.40625 -9.535156 1.671875 -10.15625 2.203125 -10.65625 C 2.734375 -11.164062 3.421875 -11.421875 4.265625 -11.421875 C 5.078125 -11.421875 5.75 -11.164062 6.28125 -10.65625 C 6.820312 -10.15625 7.09375 -9.535156 7.09375 -8.796875 C 7.09375 -8.066406 6.820312 -7.453125 6.28125 -6.953125 C 5.75 -6.460938 5.078125 -6.21875 4.265625 -6.21875 Z M 4.265625 -6.21875 "/></g></g></g><g fill="#ffffff" fill-opacity="1"><g transform="translate(437.460918, 1372.424981)"><g/></g></g><g fill="#ffffff" fill-opacity="1"><g transform="translate(443.39857, 1372.424981)"><g/></g></g><g fill="#ffffff" fill-opacity="1"><g transform="translate(449.336222, 1372.424981)"><g/></g></g><g fill="#ffffff" fill-opacity="1"><g transform="translate(455.285139, 1372.424981)"><g><path d="M 24.171875 -15.625 L 19.953125 0 L 14.65625 0 L 12.1875 -10.140625 L 9.640625 0 L 4.375 0 L 0.109375 -15.625 L 4.90625 -15.625 L 7.109375 -4.453125 L 9.75 -15.625 L 14.8125 -15.625 L 17.484375 -4.515625 L 19.671875 -15.625 Z M 24.171875 -15.625 "/></g></g></g><g fill="#ffffff" fill-opacity="1"><g transform="translate(479.539894, 1372.424981)"><g><path d="M 24.171875 -15.625 L 19.953125 0 L 14.65625 0 L 12.1875 -10.140625 L 9.640625 0 L 4.375 0 L 0.109375 -15.625 L 4.90625 -15.625 L 7.109375 -4.453125 L 9.75 -15.625 L 14.8125 -15.625 L 17.484375 -4.515625 L 19.671875 -15.625 Z M 24.171875 -15.625 "/></g></g></g><g fill="#ffffff" fill-opacity="1"><g transform="translate(503.794649, 1372.424981)"><g><path d="M 24.171875 -15.625 L 19.953125 0 L 14.65625 0 L 12.1875 -10.140625 L 9.640625 0 L 4.375 0 L 0.109375 -15.625 L 4.90625 -15.625 L 7.109375 -4.453125 L 9.75 -15.625 L 14.8125 -15.625 L 17.484375 -4.515625 L 19.671875 -15.625 Z M 24.171875 -15.625 "/></g></g></g><g fill="#ffffff" fill-opacity="1"><g transform="translate(528.049403, 1372.424981)"><g><path d="M 3.984375 0.21875 C 3.140625 0.21875 2.453125 -0.0234375 1.921875 -0.515625 C 1.390625 -1.015625 1.125 -1.628906 1.125 -2.359375 C 1.125 -3.097656 1.390625 -3.71875 1.921875 -4.21875 C 2.453125 -4.726562 3.140625 -4.984375 3.984375 -4.984375 C 4.796875 -4.984375 5.46875 -4.726562 6 -4.21875 C 6.539062 -3.71875 6.8125 -3.097656 6.8125 -2.359375 C 6.8125 -1.628906 6.539062 -1.015625 6 -0.515625 C 5.46875 -0.0234375 4.796875 0.21875 3.984375 0.21875 Z M 3.984375 0.21875 "/></g></g></g><g fill="#ffffff" fill-opacity="1"><g transform="translate(535.9476, 1372.424981)"><g><path d="M 9.578125 -11.65625 L 7 -11.65625 L 7 0 L 2.21875 0 L 2.21875 -11.65625 L 0.46875 -11.65625 L 0.46875 -15.625 L 2.21875 -15.625 L 2.21875 -16.078125 C 2.21875 -18.003906 2.765625 -19.46875 3.859375 -20.46875 C 4.960938 -21.46875 6.582031 -21.96875 8.71875 -21.96875 C 9.070312 -21.96875 9.332031 -21.957031 9.5 -21.9375 L 9.5 -17.875 C 8.582031 -17.925781 7.9375 -17.789062 7.5625 -17.46875 C 7.1875 -17.15625 7 -16.585938 7 -15.765625 L 7 -15.625 L 9.578125 -15.625 Z M 9.578125 -11.65625 "/></g></g></g><g fill="#ffffff" fill-opacity="1"><g transform="translate(546.030405, 1372.424981)"><g><path d="M 0.78125 -7.84375 C 0.78125 -9.445312 1.082031 -10.851562 1.6875 -12.0625 C 2.300781 -13.28125 3.128906 -14.21875 4.171875 -14.875 C 5.222656 -15.53125 6.390625 -15.859375 7.671875 -15.859375 C 8.773438 -15.859375 9.742188 -15.632812 10.578125 -15.1875 C 11.410156 -14.738281 12.050781 -14.148438 12.5 -13.421875 L 12.5 -15.625 L 17.28125 -15.625 L 17.28125 0 L 12.5 0 L 12.5 -2.21875 C 12.03125 -1.488281 11.378906 -0.898438 10.546875 -0.453125 C 9.710938 -0.00390625 8.742188 0.21875 7.640625 0.21875 C 6.378906 0.21875 5.222656 -0.109375 4.171875 -0.765625 C 3.128906 -1.429688 2.300781 -2.375 1.6875 -3.59375 C 1.082031 -4.820312 0.78125 -6.238281 0.78125 -7.84375 Z M 12.5 -7.8125 C 12.5 -9.007812 12.164062 -9.953125 11.5 -10.640625 C 10.832031 -11.335938 10.023438 -11.6875 9.078125 -11.6875 C 8.117188 -11.6875 7.304688 -11.34375 6.640625 -10.65625 C 5.984375 -9.976562 5.65625 -9.039062 5.65625 -7.84375 C 5.65625 -6.644531 5.984375 -5.695312 6.640625 -5 C 7.304688 -4.300781 8.117188 -3.953125 9.078125 -3.953125 C 10.023438 -3.953125 10.832031 -4.296875 11.5 -4.984375 C 12.164062 -5.671875 12.5 -6.613281 12.5 -7.8125 Z M 12.5 -7.8125 "/></g></g></g><g fill="#ffffff" fill-opacity="1"><g transform="translate(565.047703, 1372.424981)"><g><path d="M 0.78125 -7.8125 C 0.78125 -9.4375 1.113281 -10.851562 1.78125 -12.0625 C 2.445312 -13.28125 3.367188 -14.21875 4.546875 -14.875 C 5.734375 -15.53125 7.09375 -15.859375 8.625 -15.859375 C 10.59375 -15.859375 12.234375 -15.34375 13.546875 -14.3125 C 14.859375 -13.289062 15.722656 -11.84375 16.140625 -9.96875 L 11.03125 -9.96875 C 10.601562 -11.164062 9.773438 -11.765625 8.546875 -11.765625 C 7.671875 -11.765625 6.96875 -11.421875 6.4375 -10.734375 C 5.914062 -10.054688 5.65625 -9.082031 5.65625 -7.8125 C 5.65625 -6.539062 5.914062 -5.5625 6.4375 -4.875 C 6.96875 -4.195312 7.671875 -3.859375 8.546875 -3.859375 C 9.773438 -3.859375 10.601562 -4.457031 11.03125 -5.65625 L 16.140625 -5.65625 C 15.722656 -3.820312 14.851562 -2.382812 13.53125 -1.34375 C 12.207031 -0.300781 10.570312 0.21875 8.625 0.21875 C 7.09375 0.21875 5.734375 -0.101562 4.546875 -0.75 C 3.367188 -1.40625 2.445312 -2.335938 1.78125 -3.546875 C 1.113281 -4.765625 0.78125 -6.1875 0.78125 -7.8125 Z M 0.78125 -7.8125 "/></g></g></g><g fill="#ffffff" fill-opacity="1"><g transform="translate(581.992419, 1372.424981)"><g><path d="M 10.453125 -4.0625 L 10.453125 0 L 8.015625 0 C 6.273438 0 4.921875 -0.421875 3.953125 -1.265625 C 2.984375 -2.117188 2.5 -3.507812 2.5 -5.4375 L 2.5 -11.65625 L 0.59375 -11.65625 L 0.59375 -15.625 L 2.5 -15.625 L 2.5 -19.4375 L 7.28125 -19.4375 L 7.28125 -15.625 L 10.421875 -15.625 L 10.421875 -11.65625 L 7.28125 -11.65625 L 7.28125 -5.375 C 7.28125 -4.90625 7.390625 -4.566406 7.609375 -4.359375 C 7.835938 -4.160156 8.210938 -4.0625 8.734375 -4.0625 Z M 10.453125 -4.0625 "/></g></g></g><g fill="#ffffff" fill-opacity="1"><g transform="translate(593.363588, 1372.424981)"><g><path d="M 8.859375 0.21875 C 7.328125 0.21875 5.945312 -0.101562 4.71875 -0.75 C 3.5 -1.40625 2.535156 -2.335938 1.828125 -3.546875 C 1.128906 -4.765625 0.78125 -6.1875 0.78125 -7.8125 C 0.78125 -9.414062 1.132812 -10.828125 1.84375 -12.046875 C 2.550781 -13.273438 3.519531 -14.21875 4.75 -14.875 C 5.988281 -15.53125 7.375 -15.859375 8.90625 -15.859375 C 10.4375 -15.859375 11.816406 -15.53125 13.046875 -14.875 C 14.285156 -14.21875 15.257812 -13.273438 15.96875 -12.046875 C 16.675781 -10.828125 17.03125 -9.414062 17.03125 -7.8125 C 17.03125 -6.207031 16.671875 -4.789062 15.953125 -3.5625 C 15.234375 -2.34375 14.253906 -1.40625 13.015625 -0.75 C 11.773438 -0.101562 10.390625 0.21875 8.859375 0.21875 Z M 8.859375 -3.921875 C 9.765625 -3.921875 10.539062 -4.253906 11.1875 -4.921875 C 11.832031 -5.597656 12.15625 -6.5625 12.15625 -7.8125 C 12.15625 -9.0625 11.84375 -10.019531 11.21875 -10.6875 C 10.59375 -11.363281 9.820312 -11.703125 8.90625 -11.703125 C 7.976562 -11.703125 7.203125 -11.367188 6.578125 -10.703125 C 5.960938 -10.046875 5.65625 -9.082031 5.65625 -7.8125 C 5.65625 -6.5625 5.957031 -5.597656 6.5625 -4.921875 C 7.175781 -4.253906 7.941406 -3.921875 8.859375 -3.921875 Z M 8.859375 -3.921875 "/></g></g></g><g fill="#ffffff" fill-opacity="1"><g transform="translate(611.20456, 1372.424981)"><g><path d="M 6.53125 -13.03125 C 7.09375 -13.882812 7.789062 -14.554688 8.625 -15.046875 C 9.46875 -15.546875 10.40625 -15.796875 11.4375 -15.796875 L 11.4375 -10.734375 L 10.109375 -10.734375 C 8.921875 -10.734375 8.023438 -10.472656 7.421875 -9.953125 C 6.828125 -9.441406 6.53125 -8.539062 6.53125 -7.25 L 6.53125 0 L 1.734375 0 L 1.734375 -15.625 L 6.53125 -15.625 Z M 6.53125 -13.03125 "/></g></g></g><g fill="#ffffff" fill-opacity="1"><g transform="translate(623.191902, 1372.424981)"><g><path d="M 4.140625 -17.25 C 3.304688 -17.25 2.617188 -17.5 2.078125 -18 C 1.546875 -18.5 1.28125 -19.109375 1.28125 -19.828125 C 1.28125 -20.578125 1.546875 -21.195312 2.078125 -21.6875 C 2.617188 -22.1875 3.304688 -22.4375 4.140625 -22.4375 C 4.960938 -22.4375 5.640625 -22.1875 6.171875 -21.6875 C 6.703125 -21.195312 6.96875 -20.578125 6.96875 -19.828125 C 6.96875 -19.109375 6.703125 -18.5 6.171875 -18 C 5.640625 -17.5 4.960938 -17.25 4.140625 -17.25 Z M 6.53125 -15.625 L 6.53125 0 L 1.734375 0 L 1.734375 -15.625 Z M 6.53125 -15.625 "/></g></g></g><g fill="#ffffff" fill-opacity="1"><g transform="translate(631.454203, 1372.424981)"><g><path d="M 0.78125 -7.84375 C 0.78125 -9.445312 1.082031 -10.851562 1.6875 -12.0625 C 2.300781 -13.28125 3.128906 -14.21875 4.171875 -14.875 C 5.222656 -15.53125 6.390625 -15.859375 7.671875 -15.859375 C 8.773438 -15.859375 9.742188 -15.632812 10.578125 -15.1875 C 11.410156 -14.738281 12.050781 -14.148438 12.5 -13.421875 L 12.5 -15.625 L 17.28125 -15.625 L 17.28125 0 L 12.5 0 L 12.5 -2.21875 C 12.03125 -1.488281 11.378906 -0.898438 10.546875 -0.453125 C 9.710938 -0.00390625 8.742188 0.21875 7.640625 0.21875 C 6.378906 0.21875 5.222656 -0.109375 4.171875 -0.765625 C 3.128906 -1.429688 2.300781 -2.375 1.6875 -3.59375 C 1.082031 -4.820312 0.78125 -6.238281 0.78125 -7.84375 Z M 12.5 -7.8125 C 12.5 -9.007812 12.164062 -9.953125 11.5 -10.640625 C 10.832031 -11.335938 10.023438 -11.6875 9.078125 -11.6875 C 8.117188 -11.6875 7.304688 -11.34375 6.640625 -10.65625 C 5.984375 -9.976562 5.65625 -9.039062 5.65625 -7.84375 C 5.65625 -6.644531 5.984375 -5.695312 6.640625 -5 C 7.304688 -4.300781 8.117188 -3.953125 9.078125 -3.953125 C 10.023438 -3.953125 10.832031 -4.296875 11.5 -4.984375 C 12.164062 -5.671875 12.5 -6.613281 12.5 -7.8125 Z M 12.5 -7.8125 "/></g></g></g><g fill="#ffffff" fill-opacity="1"><g transform="translate(650.471502, 1372.424981)"><g><path d="M 9.578125 -11.65625 L 7 -11.65625 L 7 0 L 2.21875 0 L 2.21875 -11.65625 L 0.46875 -11.65625 L 0.46875 -15.625 L 2.21875 -15.625 L 2.21875 -16.078125 C 2.21875 -18.003906 2.765625 -19.46875 3.859375 -20.46875 C 4.960938 -21.46875 6.582031 -21.96875 8.71875 -21.96875 C 9.070312 -21.96875 9.332031 -21.957031 9.5 -21.9375 L 9.5 -17.875 C 8.582031 -17.925781 7.9375 -17.789062 7.5625 -17.46875 C 7.1875 -17.15625 7 -16.585938 7 -15.765625 L 7 -15.625 L 9.578125 -15.625 Z M 9.578125 -11.65625 "/></g></g></g><g fill="#ffffff" fill-opacity="1"><g transform="translate(660.554318, 1372.424981)"><g><path d="M 15.65625 -16.28125 L 6.921875 -16.28125 L 6.921875 -12.40625 C 7.296875 -12.820312 7.816406 -13.160156 8.484375 -13.421875 C 9.160156 -13.679688 9.890625 -13.8125 10.671875 -13.8125 C 12.078125 -13.8125 13.238281 -13.492188 14.15625 -12.859375 C 15.082031 -12.222656 15.757812 -11.398438 16.1875 -10.390625 C 16.625 -9.378906 16.84375 -8.285156 16.84375 -7.109375 C 16.84375 -4.929688 16.222656 -3.203125 14.984375 -1.921875 C 13.753906 -0.640625 12.019531 0 9.78125 0 C 8.28125 0 6.976562 -0.253906 5.875 -0.765625 C 4.78125 -1.285156 3.929688 -2 3.328125 -2.90625 C 2.734375 -3.820312 2.410156 -4.878906 2.359375 -6.078125 L 7.03125 -6.078125 C 7.144531 -5.492188 7.414062 -5.007812 7.84375 -4.625 C 8.269531 -4.25 8.859375 -4.0625 9.609375 -4.0625 C 10.484375 -4.0625 11.132812 -4.34375 11.5625 -4.90625 C 12 -5.46875 12.21875 -6.210938 12.21875 -7.140625 C 12.21875 -8.054688 11.992188 -8.753906 11.546875 -9.234375 C 11.097656 -9.722656 10.441406 -9.96875 9.578125 -9.96875 C 8.941406 -9.96875 8.414062 -9.8125 8 -9.5 C 7.59375 -9.195312 7.328125 -8.796875 7.203125 -8.296875 L 2.578125 -8.296875 L 2.578125 -20.484375 L 15.65625 -20.484375 Z M 15.65625 -16.28125 "/></g></g></g><g fill="#ffffff" fill-opacity="1"><g transform="translate(678.759395, 1372.424981)"><g><path d="M 3.984375 0.21875 C 3.140625 0.21875 2.453125 -0.0234375 1.921875 -0.515625 C 1.390625 -1.015625 1.125 -1.628906 1.125 -2.359375 C 1.125 -3.097656 1.390625 -3.71875 1.921875 -4.21875 C 2.453125 -4.726562 3.140625 -4.984375 3.984375 -4.984375 C 4.796875 -4.984375 5.46875 -4.726562 6 -4.21875 C 6.539062 -3.71875 6.8125 -3.097656 6.8125 -2.359375 C 6.8125 -1.628906 6.539062 -1.015625 6 -0.515625 C 5.46875 -0.0234375 4.796875 0.21875 3.984375 0.21875 Z M 3.984375 0.21875 "/></g></g></g><g fill="#ffffff" fill-opacity="1"><g transform="translate(686.657603, 1372.424981)"><g><path d="M 8.859375 0.21875 C 7.328125 0.21875 5.945312 -0.101562 4.71875 -0.75 C 3.5 -1.40625 2.535156 -2.335938 1.828125 -3.546875 C 1.128906 -4.765625 0.78125 -6.1875 0.78125 -7.8125 C 0.78125 -9.414062 1.132812 -10.828125 1.84375 -12.046875 C 2.550781 -13.273438 3.519531 -14.21875 4.75 -14.875 C 5.988281 -15.53125 7.375 -15.859375 8.90625 -15.859375 C 10.4375 -15.859375 11.816406 -15.53125 13.046875 -14.875 C 14.285156 -14.21875 15.257812 -13.273438 15.96875 -12.046875 C 16.675781 -10.828125 17.03125 -9.414062 17.03125 -7.8125 C 17.03125 -6.207031 16.671875 -4.789062 15.953125 -3.5625 C 15.234375 -2.34375 14.253906 -1.40625 13.015625 -0.75 C 11.773438 -0.101562 10.390625 0.21875 8.859375 0.21875 Z M 8.859375 -3.921875 C 9.765625 -3.921875 10.539062 -4.253906 11.1875 -4.921875 C 11.832031 -5.597656 12.15625 -6.5625 12.15625 -7.8125 C 12.15625 -9.0625 11.84375 -10.019531 11.21875 -10.6875 C 10.59375 -11.363281 9.820312 -11.703125 8.90625 -11.703125 C 7.976562 -11.703125 7.203125 -11.367188 6.578125 -10.703125 C 5.960938 -10.046875 5.65625 -9.082031 5.65625 -7.8125 C 5.65625 -6.5625 5.957031 -5.597656 6.5625 -4.921875 C 7.175781 -4.253906 7.941406 -3.921875 8.859375 -3.921875 Z M 8.859375 -3.921875 "/></g></g></g><g fill="#ffffff" fill-opacity="1"><g transform="translate(704.498574, 1372.424981)"><g><path d="M 6.53125 -13.03125 C 7.09375 -13.882812 7.789062 -14.554688 8.625 -15.046875 C 9.46875 -15.546875 10.40625 -15.796875 11.4375 -15.796875 L 11.4375 -10.734375 L 10.109375 -10.734375 C 8.921875 -10.734375 8.023438 -10.472656 7.421875 -9.953125 C 6.828125 -9.441406 6.53125 -8.539062 6.53125 -7.25 L 6.53125 0 L 1.734375 0 L 1.734375 -15.625 L 6.53125 -15.625 Z M 6.53125 -13.03125 "/></g></g></g><g fill="#ffffff" fill-opacity="1"><g transform="translate(716.485916, 1372.424981)"><g><path d="M 7.671875 -15.859375 C 8.773438 -15.859375 9.742188 -15.632812 10.578125 -15.1875 C 11.410156 -14.738281 12.050781 -14.148438 12.5 -13.421875 L 12.5 -15.625 L 17.28125 -15.625 L 17.28125 -0.03125 C 17.28125 1.40625 16.992188 2.707031 16.421875 3.875 C 15.859375 5.039062 14.992188 5.96875 13.828125 6.65625 C 12.660156 7.351562 11.207031 7.703125 9.46875 7.703125 C 7.15625 7.703125 5.28125 7.15625 3.84375 6.0625 C 2.40625 4.96875 1.582031 3.488281 1.375 1.625 L 6.109375 1.625 C 6.253906 2.21875 6.609375 2.6875 7.171875 3.03125 C 7.734375 3.382812 8.425781 3.5625 9.25 3.5625 C 10.238281 3.5625 11.023438 3.273438 11.609375 2.703125 C 12.203125 2.128906 12.5 1.21875 12.5 -0.03125 L 12.5 -2.234375 C 12.03125 -1.515625 11.382812 -0.925781 10.5625 -0.46875 C 9.738281 -0.0078125 8.773438 0.21875 7.671875 0.21875 C 6.390625 0.21875 5.222656 -0.109375 4.171875 -0.765625 C 3.128906 -1.429688 2.300781 -2.375 1.6875 -3.59375 C 1.082031 -4.820312 0.78125 -6.238281 0.78125 -7.84375 C 0.78125 -9.445312 1.082031 -10.851562 1.6875 -12.0625 C 2.300781 -13.28125 3.128906 -14.21875 4.171875 -14.875 C 5.222656 -15.53125 6.390625 -15.859375 7.671875 -15.859375 Z M 12.5 -7.8125 C 12.5 -9.007812 12.164062 -9.953125 11.5 -10.640625 C 10.832031 -11.335938 10.023438 -11.6875 9.078125 -11.6875 C 8.117188 -11.6875 7.304688 -11.34375 6.640625 -10.65625 C 5.984375 -9.976562 5.65625 -9.039062 5.65625 -7.84375 C 5.65625 -6.644531 5.984375 -5.695312 6.640625 -5 C 7.304688 -4.300781 8.117188 -3.953125 9.078125 -3.953125 C 10.023438 -3.953125 10.832031 -4.296875 11.5 -4.984375 C 12.164062 -5.671875 12.5 -6.613281 12.5 -7.8125 Z M 12.5 -7.8125 "/></g></g></g></svg>