<?xml version="1.0" encoding="UTF-8"?>
<svg id="Capa_1" data-name="Capa 1" xmlns="http://www.w3.org/2000/svg" viewBox="0 0 239.71 310.89">
  <defs>
    <style>
      .cls-1 {
        fill: #fff;
      }
    </style>
  </defs>
  <path class="cls-1" d="M122.3,120.98c21.46.04,48.3,3.23,68.98,8.91,11.64,3.19,20.03,10.82,24.55,21.98,8.71,21.53,14.69,45.19,23,66.99,5.64,24.93-16.91,37.39-30.53,53.86-1.22,6.13-.86,12.19-5.1,17.32.51,2.2,2.17,3.89,2.54,6.24,1.16,7.36-3.99,14.31-11.51,14.62H45.39c-7.82-.44-12.81-7.4-11.51-15.06.33-1.94,2.68-4.53,2.54-5.79-.05-.51-2.86-4.34-3.4-6.29-2.12-7.72.46-8.5-5.61-15.46-15.39-17.66-33.61-26.04-25.36-53.88,6.47-21.81,15.94-43.61,22.87-65.36,8.56-18.54,27.63-20.58,45.64-23.71,16.48-2.86,34.98-4.39,51.73-4.36ZM209.8,256.45c7.32-7.59,19.31-16.57,20.18-27.88.51-6.65-3.43-16.06-5.58-22.5-5.34-16.01-11.31-35.8-17.9-51.01-3.8-8.76-8.88-13.11-18.03-15.77-31.85-9.28-68.96-11.87-101.73-6.99-10.98,1.64-26.98,4.16-37.36,7.42-9.89,3.1-14.29,9.88-17.81,19.06-8.29,21.64-15.05,44.22-21.93,66.29-.59,9.54,4.78,15.68,10.74,22.17,1.04,1.13,8.22,8.53,8.79,8.77.94.39.58-.57.54-.98-1.45-15.89-4.73-32.62-5.59-48.4-.56-10.23,3.59-16.84,14.24-17.79h162.89c10.1.7,15.3,7.89,14.24,17.79l-5.7,49.82ZM39.39,198.63c-4,.45-5.77,1.38-5.62,5.78l8.37,75.49c1.37,4.77,4.25,6.09,8.95,6.41h138.3c4.46-.39,7.17-2.39,8.07-6.86l8.39-75.48c.16-4.01-2.73-5.48-6.36-5.49l-160.1.15ZM45.94,296.04c-4.06,1.39-2.51,5.07,1.2,5.2h145.33c4.69-.22,4.71-5.09,0-5.31l-146.54.11Z"/>
  <path class="cls-1" d="M117.53.23c50.28-4.43,77.98,55.05,49.43,94.2-28.96,39.72-87.9,24.54-98.21-22.43C61.57,39.26,82.78,3.29,117.53.23ZM118.84,9.45c-35.38,3.06-52.52,45.18-35.54,74.78,18.01,31.39,60.82,31.6,79,.28,19-32.73-3.89-78.48-43.46-75.06Z"/>
  <path class="cls-1" d="M107.38,240.07c-1.15,1.26-6.41,2.88-6.88,3.87-.21.89.37.59.86.86,3.45,1.89,8.12,2.67,6.94,7.82-.55,2.4-2.46,2.85-4.61,2.16-2.53-.81-11.25-5.46-13.59-7.03s-2.86-4.85-.98-6.86c2.56-2.74,12.23-5.7,15.76-7.98,3.81-.63,4.51,4.96,2.51,7.16Z"/>
  <path class="cls-1" d="M132.21,254.57c-.43-.4-.95-2.09-1.01-2.74-.46-5.36,5.17-5.25,8.36-7.9-3.57-2.1-9.15-2.95-8.31-8.31.21-1.35,1.41-2.81,2.82-2.84,1.3-.03,16.19,7.5,16.87,8.56,1.08,1.68.82,4.77-.86,6.07-1.46,1.13-12.8,7.07-14.44,7.51-1,.27-2.61.4-3.41-.35Z"/>
  <path class="cls-1" d="M124.54,228c1.87-.27,4.4.62,4.53,2.76l-9.32,24.52c-1.14,1.59-3.84,1.41-5.46.75-3.13-1.27-1.39-4.09-.63-6.41,1.58-4.85,4.91-14.44,7.23-18.67.78-1.42,1.97-2.72,3.65-2.96Z"/>
</svg>